<svg width="80" height="80" viewBox="0 0 80 80" fill="none" xmlns="http://www.w3.org/2000/svg">
<g clip-path="url(#clip0)">
<path d="M56.8186 40.9792C56.6807 40.508 56.3264 40.1231 55.8557 39.9509C55.7607 39.9162 54.9905 39.6437 53.7943 39.4687C58.9049 34.0308 57.2175 27.6775 56.8186 26.4367C56.6807 25.9653 56.3264 25.5805 55.8557 25.4083C55.6363 25.328 51.8111 23.9792 47.453 25.4959C47.6991 24.4864 47.843 23.3765 47.843 22.1587C47.843 14.367 41.9425 10.9423 40.7585 10.3344C40.3277 10.0984 39.8047 10.0769 39.3504 10.2881C39.0574 10.4242 32.174 13.7184 32.174 22.1587C32.174 23.379 32.3185 24.4912 32.5655 25.5023C28.1997 23.9755 24.3643 25.3278 24.1446 25.4083C23.6738 25.5805 23.3196 25.9653 23.1816 26.4367C22.7827 27.6775 21.0954 34.0308 26.206 39.4687C25.0097 39.6437 24.2396 39.9162 24.1446 39.9509C23.6738 40.1231 23.3194 40.5081 23.1815 40.9794C22.7743 42.2461 21.0233 48.8405 26.533 54.3501C29.7215 57.5386 33.2602 58.2992 35.9115 58.2992C36.893 58.2992 37.751 58.1947 38.4264 58.0706V68.2945C38.4264 69.1573 39.126 69.857 39.9889 69.857C40.8519 69.857 41.5514 69.1573 41.5514 68.2945V58.0667C42.23 58.1923 43.0964 58.2991 44.0886 58.2991C46.7397 58.2991 50.2789 57.5381 53.4671 54.35C58.9767 48.8401 57.2258 42.2459 56.8186 40.9792ZM38.4264 53.1998C38.3918 53.9091 38.2922 54.5051 38.1971 54.9337C36.5269 55.3048 32.3482 55.7458 28.7429 52.1403C25.1918 48.5895 25.564 44.48 25.9571 42.6869C27.0072 42.4586 29.0565 42.2042 31.3252 42.9405C31.4746 42.9964 31.6235 43.0492 31.7716 43.0984C32.9732 43.5541 34.2207 44.2978 35.403 45.48C37.656 47.733 38.3288 50.2095 38.4264 52.1573V53.1998ZM38.4264 38.6575C38.3918 39.3667 38.2922 39.9628 38.1971 40.3912C37.1622 40.6214 35.1644 40.8769 32.9368 40.1816C32.711 40.0945 32.4865 40.0153 32.2635 39.9436C31.0982 39.4833 29.8915 38.7464 28.7427 37.5978C25.1918 34.0469 25.564 29.9375 25.9571 28.1445C27.6257 27.7817 31.8161 27.3508 35.403 30.9376C35.4258 30.9605 35.4465 30.9834 35.4688 31.0061C35.6058 31.1598 35.7433 31.3069 35.8807 31.4481C37.7508 33.5592 38.3361 35.8133 38.4264 37.615V38.6575ZM40.011 30.8178C39.5213 30.5037 38.8157 29.9861 38.0989 29.2378C38.0258 29.1576 37.9519 29.0775 37.876 28.9976C36.5705 27.5475 35.2988 25.323 35.2988 22.1587C35.2988 17.0655 38.5582 14.4228 40.0005 13.5028C41.5452 14.4912 44.7179 17.1339 44.7179 22.1587C44.7179 25.1447 43.5974 27.2872 42.3799 28.7353C42.1268 28.9887 41.8899 29.2447 41.6666 29.5019C41.0419 30.1092 40.4436 30.5422 40.011 30.8178ZM41.5611 38.1511C41.5589 36.3167 42.0335 33.8892 43.9763 31.6095C44.2064 31.3808 44.4379 31.1347 44.6672 30.8701C48.2527 27.3434 52.3827 27.7742 54.0424 28.1414C54.4357 29.9328 54.8103 34.0448 51.2572 37.5978C50.1107 38.7445 48.9063 39.4808 47.743 39.9414C47.5163 40.0142 47.288 40.0947 47.0583 40.1833C44.831 40.8775 42.8344 40.6211 41.8036 40.3917C41.688 39.8709 41.5655 39.1061 41.561 38.1909C41.561 38.1776 41.5611 38.1644 41.5611 38.1511ZM51.2572 52.1403C47.6513 55.7464 43.4724 55.3047 41.8061 54.935C41.4429 53.2728 41.0036 49.0734 44.5971 45.48C45.7468 44.3303 46.9544 43.5933 48.1207 43.133C48.3432 43.0614 48.5671 42.9826 48.7922 42.8958C51.015 42.202 53.0083 42.4551 54.0424 42.6837C54.4357 44.4753 54.8103 48.5873 51.2572 52.1403Z" fill="white"/>
<path d="M48.3369 0.870469C45.6133 0.292969 42.8083 0 40 0C29.3156 0 19.2708 4.16063 11.7158 11.7158C4.16078 19.2708 0 29.3156 0 40C0 48.9028 2.99531 57.5933 8.4525 64.5908C7.83859 65.5405 7.50812 66.6467 7.50812 67.8045C7.50812 69.3905 8.12578 70.8814 9.24719 72.003C10.3686 73.1244 11.8597 73.742 13.4456 73.742C15.0316 73.742 16.5227 73.1244 17.6441 72.003C18.7656 70.8814 19.3831 69.3905 19.3831 67.8045C19.3831 66.2186 18.7655 64.7277 17.6441 63.6061C16.5227 62.4845 15.0316 61.8669 13.4456 61.8669C12.5056 61.8669 11.5995 62.0855 10.7834 62.4958C5.83781 56.0758 3.125 48.1345 3.125 40C3.125 19.667 19.667 3.125 40 3.125C42.5909 3.125 45.1777 3.395 47.6886 3.9275C48.5333 4.10641 49.3622 3.56719 49.5412 2.72312C49.7203 1.87891 49.1811 1.04953 48.3369 0.870469ZM11.4569 65.8156C12.0052 65.2672 12.7253 64.9931 13.4456 64.9931C14.1659 64.9931 14.8861 65.2673 15.4344 65.8156C15.9656 66.3467 16.2581 67.0531 16.2581 67.8044C16.2581 68.5556 15.9656 69.2619 15.4344 69.7931C14.3378 70.89 12.5534 70.8897 11.4569 69.7931C10.9256 69.262 10.6331 68.5556 10.6331 67.8044C10.6331 67.0531 10.9256 66.3469 11.4569 65.8156Z" fill="white"/>
<path d="M71.5475 15.4092C72.1614 14.4595 72.4919 13.3533 72.4919 12.1954C72.4919 10.6095 71.8743 9.11841 70.7528 7.997C69.6314 6.87544 68.1403 6.25793 66.5544 6.25793C64.9685 6.25793 63.4774 6.87559 62.356 7.997C61.2346 9.11841 60.6169 10.6095 60.6169 12.1954C60.6169 13.7814 61.2346 15.2725 62.356 16.3939C63.4774 17.5154 64.9685 18.1329 66.5544 18.1329C67.4946 18.1329 68.4005 17.9143 69.2168 17.504C74.1622 23.9242 76.875 31.8655 76.875 40C76.875 60.333 60.333 76.875 40 76.875C37.8127 76.875 35.6211 76.6822 33.4863 76.3017C32.6372 76.1506 31.8252 76.7161 31.6739 77.5659C31.5225 78.4155 32.0885 79.2269 32.938 79.3783C35.2535 79.7908 37.6294 80 40 80C50.6844 80 60.7293 75.8392 68.2844 68.2844C75.8396 60.7295 80 50.6844 80 40C80 31.0972 77.0047 22.4067 71.5475 15.4092ZM68.5433 14.1842C68.0122 14.7154 67.3058 15.0079 66.5546 15.0079C65.8033 15.0079 65.0969 14.7156 64.5658 14.1842C63.4691 13.0876 63.4691 11.3034 64.5658 10.2067C65.0969 9.67544 65.8033 9.38294 66.5546 9.38294C67.3058 9.38294 68.0121 9.67544 68.5433 10.2067C69.0746 10.7378 69.3671 11.4442 69.3671 12.1954C69.3671 12.9467 69.0746 13.6529 68.5433 14.1842Z" fill="white"/>
<path d="M26.2709 74.2348L25.6809 75.6817L26.2666 74.2331C25.4661 73.91 24.5558 74.296 24.2324 75.096C23.9089 75.8961 24.2953 76.8068 25.0953 77.1304L25.1436 77.1495C25.3278 77.22 25.5175 77.2534 25.7041 77.2534C26.3334 77.2534 26.9283 76.8725 27.1664 76.2511C27.4752 75.445 27.0769 74.5434 26.2709 74.2348Z" fill="white"/>
<path d="M54.9725 2.89737L54.9447 2.88627C54.1436 2.56565 53.2342 2.95549 52.9136 3.75674C52.593 4.55799 52.9828 5.46706 53.7841 5.78768L53.8019 5.79487C53.9937 5.87237 54.1917 5.90893 54.3867 5.90893C55.0048 5.90893 55.5901 5.53971 55.8359 4.93143C56.1592 4.13128 55.7726 3.22065 54.9725 2.89737Z" fill="white"/>
</g>
<defs>
<clipPath id="clip0">
<rect width="80" height="80" fill="white"/>
</clipPath>
</defs>
</svg>
