<svg width="100" height="100" viewBox="0 0 100 100" fill="none" xmlns="http://www.w3.org/2000/svg">
<path d="M8.59447 10.1523H5.46948V61.7294H8.59447V10.1523Z" fill="#CCD1D9"/>
<path d="M94.5305 10.1679H8.59332V61.7158H94.5305V10.1679Z" fill="white"/>
<path d="M50 69.5283C51.297 69.5283 52.3435 70.575 52.3435 71.872C52.3435 73.169 51.297 74.2158 50 74.2158C48.703 74.2158 47.6562 73.169 47.6562 71.872C47.6562 70.575 48.703 69.5283 50 69.5283Z" fill="white"/>
<path d="M99.2188 72.6837V75.7782C99.2188 78.4181 97.1714 80.4657 94.5313 80.4657C93.422 80.4657 77.9221 80.4657 60.141 80.4657C53.4854 80.4657 46.515 80.4657 39.8592 80.4657C22.0781 80.4657 6.57817 80.4657 5.46891 80.4657C2.82764 80.4657 0.781433 78.4181 0.781433 75.7782V72.6837C0.781433 75.2625 2.89016 77.3712 5.46891 77.3712H50H94.5311C97.1102 77.3712 99.2188 75.2625 99.2188 72.6837Z" fill="#CCD1D9"/>
<path d="M60.1407 80.4657L63.2657 94.5281H36.734L39.859 80.4657C46.5149 80.4657 53.4852 80.4657 60.1407 80.4657Z" fill="#CCD1D9"/>
<g opacity="0.5">
<path opacity="0.5" d="M39.1647 83.5907L36.734 94.5283H39.859L42.2897 83.5907H39.1647Z" fill="white"/>
</g>
<g opacity="0.1">
<path opacity="0.1" d="M60.8337 83.5907L63.2658 94.5283H60.1408L57.7087 83.5907H60.8337Z" fill="black"/>
</g>
<g opacity="0.5">
<path opacity="0.5" d="M5.75259 77.3712H5.46873C2.88997 77.3712 0.78125 75.2625 0.78125 72.6837V75.7782C0.78125 78.4181 2.82746 80.4657 5.46873 80.4657C5.80592 80.4657 7.49208 80.4657 10.1562 80.4657C8.08109 80.4657 6.39044 79.1931 5.75259 77.3712Z" fill="white"/>
</g>
<g opacity="0.1">
<path opacity="0.1" d="M94.2472 77.3712H94.5311C97.11 77.3712 99.2186 75.2625 99.2186 72.6837V75.7782C99.2186 78.4181 97.1712 80.4657 94.5311 80.4657C94.1923 80.4657 92.5081 80.4657 89.8436 80.4657C91.9189 80.4657 93.6098 79.1931 94.2472 77.3712Z" fill="black"/>
</g>
<path d="M99.2188 66.4033V72.6837C99.2188 75.2625 97.1103 77.3712 94.5313 77.3712H50V74.2157C51.297 74.2157 52.3436 73.169 52.3436 71.872C52.3436 70.575 51.297 69.5282 50 69.5282V66.4033H99.2188Z" fill="#F5F7FA"/>
<path d="M50 74.2157V77.3712H5.46873C2.88997 77.3712 0.78125 75.2625 0.78125 72.6837V72.6532V66.4033H50V69.5282C48.703 69.5282 47.6563 70.575 47.6563 71.872C47.6563 73.169 48.703 74.2157 50 74.2157Z" fill="#F5F7FA"/>
<path d="M5.46873 72.6837V72.6532V66.4033H0.78125V72.6532V72.6837C0.78125 75.2625 2.88997 77.3712 5.46873 77.3712H10.1562C7.57745 77.3712 5.46873 75.2625 5.46873 72.6837Z" fill="white"/>
<path d="M99.2188 10.1843V66.4033H50H0.78125V10.1843C0.78125 7.60656 2.88997 5.49686 5.46873 5.49686H94.5311C97.1102 5.49686 99.2188 7.60656 99.2188 10.1843ZM94.5311 61.7158V13.2781V10.1531H91.4061H88.2811H83.5936H80.4686H77.3437H74.2187H71.0937H36.7188H30.4688H24.2189H17.9689H11.7187H5.46873V13.2781V61.7158H94.5311Z" fill="#656D78"/>
<g opacity="0.2">
<path opacity="0.2" d="M5.46873 13.2781V10.1843V10.1531H5.47186C5.48866 7.58976 7.5882 5.49686 10.1562 5.49686H5.46873C2.88997 5.49686 0.78125 7.60656 0.78125 10.1843V66.4033H5.46873V61.7158V13.2781Z" fill="white"/>
</g>
<g opacity="0.3">
<path opacity="0.3" d="M94.5311 13.2781V10.1843V10.1531H94.528C94.5096 7.58976 92.4103 5.49686 89.8434 5.49686H94.5309C97.1098 5.49686 99.2184 7.60656 99.2184 10.1843V66.4033H94.5309V61.7158V13.2781H94.5311Z" fill="black"/>
</g>
<g opacity="0.1">
<path opacity="0.1" d="M60.8353 83.5907L60.1408 80.4657C53.4852 80.4657 46.5148 80.4657 39.859 80.4657L39.1647 83.5907H60.8353Z" fill="black"/>
</g>
<path d="M99.2188 67.1753H0.781247C0.3495 67.1753 0 66.8258 0 66.3941C0 65.9624 0.3495 65.6129 0.781247 65.6129H99.2186C99.6505 65.6129 100 65.9624 100 66.3941C100 66.8258 99.6505 67.1753 99.2188 67.1753Z" fill="#3A3847"/>
<path d="M50 74.9848C48.2773 74.9848 46.875 73.5841 46.875 71.8599C46.875 70.1356 48.2773 68.7349 50 68.7349C51.7227 68.7349 53.125 70.1356 53.125 71.8599C53.125 73.5841 51.7227 74.9848 50 74.9848ZM50 70.2972C49.1394 70.2972 48.4375 70.9991 48.4375 71.8597C48.4375 72.7202 49.1394 73.4222 50 73.4222C50.8619 73.4222 51.5625 72.7202 51.5625 71.8597C51.5625 70.9991 50.8619 70.2972 50 70.2972Z" fill="#3A3847"/>
<path d="M36.7296 95.3004C36.6731 95.3004 36.6166 95.2944 36.5586 95.2821C36.1374 95.1875 35.8719 94.7708 35.9651 94.3498L39.0901 80.2873C39.1846 79.8679 39.6072 79.6083 40.0224 79.6938C40.4436 79.7884 40.7091 80.2049 40.6161 80.6259L37.4911 94.6884C37.41 95.0531 37.0865 95.3004 36.7296 95.3004Z" fill="#3A3847"/>
<path d="M63.272 95.3004C62.9137 95.3004 62.5902 95.0531 62.5093 94.6883L59.3843 80.6259C59.2912 80.2049 59.5568 79.7884 59.978 79.6938C60.4035 79.6007 60.8171 79.8679 60.9101 80.2873L64.0351 94.3498C64.1283 94.7708 63.8626 95.1875 63.4414 95.282C63.3849 95.2944 63.3269 95.3004 63.272 95.3004Z" fill="#3A3847"/>
<path d="M65.6249 95.3004H34.3751C33.9431 95.3004 33.5938 94.9509 33.5938 94.5192C33.5938 94.0872 33.9431 93.7379 34.3751 93.7379H65.6249C66.0569 93.7379 66.406 94.0872 66.406 94.5192C66.4062 94.9509 66.0569 95.3004 65.6249 95.3004Z" fill="#3A3847"/>
<path d="M94.5311 62.5123H5.46875C5.037 62.5123 4.6875 62.1628 4.6875 61.731V10.1683C4.6875 9.73659 5.037 9.38708 5.46875 9.38708H94.5311C94.963 9.38708 95.3125 9.73659 95.3125 10.1683V61.731C95.3125 62.1628 94.963 62.5123 94.5311 62.5123ZM6.24999 60.9498H93.75V10.9496H6.24999V60.9498Z" fill="#3A3847"/>
<path d="M94.5311 78.1372H5.46873C2.45353 78.1372 0 75.6835 0 72.6685V10.1683C0 7.15312 2.45373 4.69958 5.46873 4.69958H94.5311C97.5463 4.69958 100 7.15331 100 10.1683V72.6685C100 75.6837 97.5463 78.1372 94.5311 78.1372ZM5.46873 6.26208C3.31566 6.26208 1.56249 8.01466 1.56249 10.1683V72.6685C1.56249 74.8229 3.31586 76.5747 5.46873 76.5747H94.5311C96.6857 76.5747 98.4375 74.8229 98.4375 72.6685V10.1683C98.4375 8.01466 96.6857 6.26208 94.5311 6.26208H5.46873Z" fill="#3A3847"/>
<path d="M94.5311 81.2378H5.46873C2.40333 81.2378 0 78.836 0 75.769V72.644C0 72.2123 0.3495 71.8628 0.781247 71.8628C1.21299 71.8628 1.56249 72.2123 1.56249 72.644V75.769C1.56249 77.9602 3.27913 79.6753 5.46873 79.6753H94.5311C96.7224 79.6753 98.4375 77.9602 98.4375 75.769V72.6685C98.4375 72.2367 98.787 71.8872 99.2186 71.8872C99.6505 71.8872 100 72.2367 100 72.6685V75.769C100 78.836 97.5982 81.2378 94.5311 81.2378Z" fill="#3A3847"/>
<path d="M8.59375 62.5123C8.162 62.5123 7.8125 62.1628 7.8125 61.731V10.1683C7.8125 9.73659 8.162 9.38708 8.59375 9.38708C9.02549 9.38708 9.37499 9.73659 9.37499 10.1683V61.731C9.37499 62.1628 9.02569 62.5123 8.59375 62.5123Z" fill="#3A3847"/>
<path d="M7.03124 15.637H5.46875C5.037 15.637 4.6875 15.2877 4.6875 14.8558C4.6875 14.4241 5.037 14.0746 5.46875 14.0746H7.03124C7.46299 14.0746 7.81249 14.4241 7.81249 14.8558C7.81249 15.2877 7.46318 15.637 7.03124 15.637Z" fill="#3A3847"/>
<path d="M7.03124 20.3247H5.46875C5.037 20.3247 4.6875 19.9754 4.6875 19.5435C4.6875 19.1117 5.037 18.7622 5.46875 18.7622H7.03124C7.46299 18.7622 7.81249 19.1117 7.81249 19.5435C7.81249 19.9754 7.46318 20.3247 7.03124 20.3247Z" fill="#3A3847"/>
<path d="M7.03124 25.0122H5.46875C5.037 25.0122 4.6875 24.6629 4.6875 24.231C4.6875 23.7992 5.037 23.4497 5.46875 23.4497H7.03124C7.46299 23.4497 7.81249 23.7992 7.81249 24.231C7.81249 24.6629 7.46318 25.0122 7.03124 25.0122Z" fill="#3A3847"/>
<path d="M7.03124 29.6997H5.46875C5.037 29.6997 4.6875 29.3504 4.6875 28.9185C4.6875 28.4867 5.037 28.1372 5.46875 28.1372H7.03124C7.46299 28.1372 7.81249 28.4867 7.81249 28.9185C7.81249 29.3504 7.46318 29.6997 7.03124 29.6997Z" fill="#3A3847"/>
<path d="M7.03124 34.3872H5.46875C5.037 34.3872 4.6875 34.0379 4.6875 33.6059C4.6875 33.1742 5.037 32.8247 5.46875 32.8247H7.03124C7.46299 32.8247 7.81249 33.1742 7.81249 33.6059C7.81249 34.0379 7.46318 34.3872 7.03124 34.3872Z" fill="#3A3847"/>
<path d="M7.03124 39.0746H5.46875C5.037 39.0746 4.6875 38.7251 4.6875 38.2934C4.6875 37.8616 5.037 37.5121 5.46875 37.5121H7.03124C7.46299 37.5121 7.81249 37.8616 7.81249 38.2934C7.81249 38.7251 7.46318 39.0746 7.03124 39.0746Z" fill="#3A3847"/>
<path d="M7.03124 43.7621H5.46875C5.037 43.7621 4.6875 43.4126 4.6875 42.9809C4.6875 42.5491 5.037 42.1996 5.46875 42.1996H7.03124C7.46299 42.1996 7.81249 42.5491 7.81249 42.9809C7.81249 43.4126 7.46318 43.7621 7.03124 43.7621Z" fill="#3A3847"/>
<path d="M7.03124 48.4496H5.46875C5.037 48.4496 4.6875 48.1001 4.6875 47.6684C4.6875 47.2366 5.037 46.8871 5.46875 46.8871H7.03124C7.46299 46.8871 7.81249 47.2366 7.81249 47.6684C7.81249 48.1001 7.46318 48.4496 7.03124 48.4496Z" fill="#3A3847"/>
<path d="M7.03124 53.1373H5.46875C5.037 53.1373 4.6875 52.7878 4.6875 52.356C4.6875 51.9243 5.037 51.5748 5.46875 51.5748H7.03124C7.46299 51.5748 7.81249 51.9243 7.81249 52.356C7.81249 52.7878 7.46318 53.1373 7.03124 53.1373Z" fill="#3A3847"/>
<path d="M7.03124 57.8248H5.46875C5.037 57.8248 4.6875 57.4753 4.6875 57.0435C4.6875 56.6118 5.037 56.2623 5.46875 56.2623H7.03124C7.46299 56.2623 7.81249 56.6118 7.81249 57.0435C7.81249 57.4753 7.46318 57.8248 7.03124 57.8248Z" fill="#3A3847"/>
<path d="M19.5314 15.637H13.2812C12.8494 15.637 12.4999 15.2877 12.4999 14.8558C12.4999 14.4241 12.8494 14.0746 13.2812 14.0746H19.5312C19.9629 14.0746 20.3124 14.4241 20.3124 14.8558C20.3126 15.2877 19.9631 15.637 19.5314 15.637Z" fill="#3A3847"/>
<path d="M47.6563 20.3247H25.7814C25.3494 20.3247 25.0001 19.9754 25.0001 19.5435C25.0001 19.1117 25.3494 18.7622 25.7814 18.7622H47.6563C48.088 18.7622 48.4375 19.1117 48.4375 19.5435C48.4375 19.9754 48.088 20.3247 47.6563 20.3247Z" fill="#3A3847"/>
<path d="M22.6563 20.3247H14.8439C14.4121 20.3247 14.0626 19.9754 14.0626 19.5435C14.0626 19.1117 14.4121 18.7622 14.8439 18.7622H22.6563C23.0881 18.7622 23.4376 19.1117 23.4376 19.5435C23.4376 19.9754 23.0881 20.3247 22.6563 20.3247Z" fill="#3A3847"/>
<path d="M66.4062 25.0122H46.0938C45.662 25.0122 45.3125 24.6629 45.3125 24.231C45.3125 23.7992 45.6618 23.4497 46.0938 23.4497H66.4062C66.8381 23.4497 67.1876 23.7992 67.1876 24.231C67.1876 24.6629 66.8379 25.0122 66.4062 25.0122Z" fill="#3A3847"/>
<path d="M75.7811 25.0122H69.5312C69.0996 25.0122 68.7501 24.6629 68.7501 24.231C68.7501 23.7992 69.0996 23.4497 69.5312 23.4497H75.7811C76.2131 23.4497 76.5626 23.7992 76.5626 24.231C76.5626 24.6629 76.2131 25.0122 75.7811 25.0122Z" fill="#3A3847"/>
<path d="M42.9688 25.0122H16.4062C15.9744 25.0122 15.6249 24.6629 15.6249 24.231C15.6249 23.7992 15.9744 23.4497 16.4062 23.4497H42.9688C43.4005 23.4497 43.75 23.7992 43.75 24.231C43.75 24.6629 43.4005 25.0122 42.9688 25.0122Z" fill="#3A3847"/>
<path d="M21.0939 34.3872H16.4062C15.9744 34.3872 15.6249 34.0379 15.6249 33.6059C15.6249 33.1742 15.9744 32.8247 16.4062 32.8247H21.0937C21.5254 32.8247 21.8749 33.1742 21.8749 33.6059C21.8751 34.0379 21.5256 34.3872 21.0939 34.3872Z" fill="#3A3847"/>
<path d="M47.4121 34.3872H24.2189C23.7871 34.3872 23.4376 34.0379 23.4376 33.6059C23.4376 33.1742 23.7871 32.8247 24.2189 32.8247H47.4123C47.844 32.8247 48.1935 33.1742 48.1935 33.6059C48.1933 34.0379 47.8438 34.3872 47.4121 34.3872Z" fill="#3A3847"/>
<path d="M53.906 29.6997H17.9689C17.5371 29.6997 17.1876 29.3504 17.1876 28.9185C17.1876 28.4867 17.5371 28.1372 17.9689 28.1372H53.9062C54.3382 28.1372 54.6877 28.4867 54.6877 28.9185C54.6875 29.3504 54.338 29.6997 53.906 29.6997Z" fill="#3A3847"/>
<path d="M52.3436 39.0746H38.2813C37.8494 39.0746 37.5001 38.7251 37.5001 38.2934C37.5001 37.8616 37.8494 37.5121 38.2813 37.5121H52.3436C52.7755 37.5121 53.125 37.8616 53.125 38.2934C53.125 38.7251 52.7755 39.0746 52.3436 39.0746Z" fill="#3A3847"/>
<path d="M41.4063 43.7621H14.8437C14.4119 43.7621 14.0624 43.4126 14.0624 42.9809C14.0624 42.5491 14.4119 42.1996 14.8437 42.1996H41.4063C41.838 42.1996 42.1875 42.5491 42.1875 42.9809C42.1875 43.4126 41.838 43.7621 41.4063 43.7621Z" fill="#3A3847"/>
<path d="M27.3438 53.1373H14.8437C14.4119 53.1373 14.0624 52.7878 14.0624 52.356C14.0624 51.9243 14.4119 51.5748 14.8437 51.5748H27.3436C27.7754 51.5748 28.1249 51.9243 28.1249 52.356C28.1249 52.7878 27.7756 53.1373 27.3438 53.1373Z" fill="#3A3847"/>
<path d="M58.5935 48.4496H36.7188C36.2869 48.4496 35.9376 48.1001 35.9376 47.6684C35.9376 47.2366 36.2869 46.8871 36.7188 46.8871H58.5935C59.0255 46.8871 59.375 47.2366 59.375 47.6684C59.375 48.1001 59.0255 48.4496 58.5935 48.4496Z" fill="#3A3847"/>
<path d="M63.281 48.4496H61.7185C61.287 48.4496 60.9375 48.1001 60.9375 47.6684C60.9375 47.2366 61.287 46.8871 61.7185 46.8871H63.281C63.713 46.8871 64.0625 47.2366 64.0625 47.6684C64.0625 48.1001 63.713 48.4496 63.281 48.4496Z" fill="#3A3847"/>
<path d="M33.5938 48.4496H16.4062C15.9744 48.4496 15.6249 48.1001 15.6249 47.6684C15.6249 47.2366 15.9744 46.8871 16.4062 46.8871H33.5938C34.0256 46.8871 34.3751 47.2366 34.3751 47.6684C34.3751 48.1001 34.0256 48.4496 33.5938 48.4496Z" fill="#3A3847"/>
<path d="M19.5314 57.8248H13.2812C12.8494 57.8248 12.4999 57.4753 12.4999 57.0435C12.4999 56.6118 12.8494 56.2623 13.2812 56.2623H19.5312C19.9629 56.2623 20.3124 56.6118 20.3124 57.0435C20.3124 57.4753 19.9631 57.8248 19.5314 57.8248Z" fill="#3A3847"/>
<path d="M53.906 43.7621H44.5313C44.0993 43.7621 43.75 43.4126 43.75 42.9809C43.75 42.5491 44.0993 42.1996 44.5313 42.1996H53.906C54.338 42.1996 54.6875 42.5491 54.6875 42.9809C54.6875 43.4126 54.338 43.7621 53.906 43.7621Z" fill="#3A3847"/>
<path d="M66.4062 39.0746H55.4687C55.0372 39.0746 54.6877 38.7251 54.6877 38.2934C54.6877 37.8616 55.0372 37.5121 55.4687 37.5121H66.4062C66.8381 37.5121 67.1876 37.8616 67.1876 38.2934C67.1876 38.7251 66.8379 39.0746 66.4062 39.0746Z" fill="#3A3847"/>
<path d="M35.1563 39.0746H16.4062C15.9744 39.0746 15.6249 38.7251 15.6249 38.2934C15.6249 37.8616 15.9744 37.5121 16.4062 37.5121H35.1563C35.5881 37.5121 35.9376 37.8616 35.9376 38.2934C35.9376 38.7251 35.5881 39.0746 35.1563 39.0746Z" fill="#3A3847"/>
<g opacity="0.3">
<path opacity="0.3" d="M11.7183 10.1679H8.59332V61.6005H11.7183V10.1679Z" fill="white"/>
</g>
<g opacity="0.2">
<path opacity="0.2" d="M94.5317 10.1679H91.4067V61.6005H94.5317V10.1679Z" fill="black"/>
</g>
<g clip-path="url(#clip0)">
<path d="M45.8752 22.4295C42.2739 19.1201 35.2265 18.7363 30.24 18.7363C29.7231 18.7363 29.3041 19.1216 29.3041 19.5968C29.3041 24.1833 29.7215 30.6628 33.321 33.9741C35.0109 35.358 37.22 36.0831 39.4811 35.9963C41.8125 36.0808 44.0936 35.3593 45.8752 33.9741C48.5576 31.5061 49.0498 25.3484 45.8752 22.4295Z" fill="#4CAF50"/>
<path d="M69.5892 22.1404C64.6009 22.1404 57.5535 22.5242 53.9521 25.8337C50.77 28.7594 51.2697 34.9085 53.9521 37.3765C55.7342 38.7619 58.0161 39.4834 60.3481 39.3987C62.6091 39.4853 64.8181 38.7601 66.5082 37.3765C70.1095 34.0653 70.5251 27.5857 70.5251 22.9992C70.5241 22.5247 70.1054 22.1404 69.5892 22.1404Z" fill="#4CAF50"/>
<path d="M48.9581 53.1564C48.4412 53.1564 48.0222 52.7711 48.0222 52.2959C48.0222 34.0446 40.7427 29.465 38.0024 27.7423C37.6719 27.5483 37.3589 27.3301 37.0664 27.0901C36.7073 26.7482 36.7177 26.2035 37.0894 25.8733C37.4522 25.5512 38.0271 25.5512 38.3898 25.8733C38.6012 26.0376 38.8251 26.1877 39.0599 26.3225C41.4932 27.8524 47.2248 31.458 49.207 43.2846C50.7389 37.1015 55.2799 31.9103 61.5198 29.2086C61.9977 29.0019 62.568 29.1674 62.8301 29.5889C63.0668 29.9725 62.9206 30.4599 62.5034 30.6776C62.4878 30.6858 62.4718 30.6935 62.4557 30.7008L62.3041 30.7662C52.0428 35.2012 49.8883 44.9215 49.8883 52.2959C49.8884 52.7691 49.4728 53.1535 48.9581 53.1564Z" fill="#388E3C"/>
</g>
<defs>
<clipPath id="clip0">
<rect width="41.2211" height="37.9" fill="white" transform="translate(29.3041 16.9964)"/>
</clipPath>
</defs>
</svg>
