<svg width="100" height="100" viewBox="0 0 100 100" fill="none" xmlns="http://www.w3.org/2000/svg">
<path d="M94.5322 13.2821H5.46948V61.7041H94.5322V13.2821Z" fill="#E6E9ED"/>
<path d="M94.5322 10.141H5.46948V13.2804H94.5322V10.141Z" fill="#A0D468"/>
<path d="M89.8436 17.9688H10.1562V30.4688H89.8436V17.9688Z" fill="#48CFAD"/>
<path d="M49.9999 69.516C51.2969 69.516 52.3435 70.5628 52.3435 71.8598C52.3435 73.1568 51.2969 74.2035 49.9999 74.2035C48.7029 74.2035 47.6562 73.1568 47.6562 71.8598C47.6562 70.5628 48.7029 69.516 49.9999 69.516Z" fill="#48CFAD"/>
<path d="M99.2186 72.6714V75.7659C99.2186 78.4058 97.1712 80.4534 94.5311 80.4534C93.4218 80.4534 77.922 80.4534 60.1409 80.4534C53.4853 80.4534 46.5156 80.4534 39.8591 80.4534C22.078 80.4534 6.57816 80.4534 5.46891 80.4534C2.82842 80.4534 0.781433 78.4058 0.781433 75.7659V72.6714C0.781433 75.2502 2.89093 77.3589 5.46891 77.3589H49.9999H94.5309C97.11 77.3591 99.2186 75.2504 99.2186 72.6714Z" fill="#CCD1D9"/>
<path d="M60.1406 80.4536L63.2656 94.516H36.7339L39.8589 80.4536C46.5156 80.4536 53.4851 80.4536 60.1406 80.4536Z" fill="#CCD1D9"/>
<g opacity="0.5">
<path opacity="0.5" d="M39.1655 83.5786L36.734 94.5159H39.859L42.2904 83.5786H39.1655Z" fill="#3A2C6D"/>
</g>
<g opacity="0.1">
<path opacity="0.1" d="M60.8336 83.5786L63.2656 94.5159H60.1407L57.7086 83.5786H60.8336Z" fill="#3A2C6D"/>
</g>
<g opacity="0.5">
<path opacity="0.5" d="M5.75336 77.3591H5.46872C2.89075 77.3591 0.78125 75.2504 0.78125 72.6716V75.7661C0.78125 78.406 2.82823 80.4536 5.46872 80.4536C5.8067 80.4536 7.49207 80.4536 10.1562 80.4536C8.08186 80.4536 6.39043 79.1806 5.75336 77.3591Z" fill="#3A2C6D"/>
</g>
<g opacity="0.1">
<path opacity="0.1" d="M94.247 77.3591H94.5309C97.1098 77.3591 99.2183 75.2504 99.2183 72.6716V75.7661C99.2183 78.406 97.171 80.4536 94.5309 80.4536C94.1921 80.4536 92.5079 80.4536 89.8434 80.4536C91.9187 80.4536 93.6095 79.1806 94.247 77.3591Z" fill="#3A2C6D"/>
</g>
<path d="M99.2186 66.391V72.6714C99.2186 75.2502 97.1101 77.3589 94.5311 77.3589H49.9999V74.2035C51.2969 74.2035 52.3435 73.1567 52.3435 71.8597C52.3435 70.5627 51.2969 69.516 49.9999 69.516V66.391H99.2186Z" fill="#F5F7FA"/>
<path d="M49.9999 74.2043V77.3597H5.46872C2.89075 77.3597 0.78125 75.251 0.78125 72.6722V72.6418V66.392H49.9999V69.517C48.7029 69.517 47.6562 70.5637 47.6562 71.8607C47.6562 73.1577 48.7029 74.2043 49.9999 74.2043Z" fill="#F5F7FA"/>
<path d="M5.46872 72.6714V72.641V66.391H0.78125V72.641V72.6714C0.78125 75.2502 2.89075 77.3589 5.46872 77.3589H10.1562C7.57822 77.3591 5.46872 75.2504 5.46872 72.6714Z" fill="#3A2C6D"/>
<path d="M99.2186 10.1722V66.391H49.9999H0.78125V10.1722C0.78125 7.59444 2.89075 5.48474 5.46872 5.48474H94.5309C97.11 5.48474 99.2186 7.59444 99.2186 10.1722ZM94.5309 61.7035V13.2661V10.141H91.4059H88.2809H83.5935H80.4685H77.3435H74.2185H71.0935H36.7187H30.4688H24.2188H17.9688H11.7187H5.46872V13.2659V61.7033L94.5309 61.7035Z" fill="#656D78"/>
<g opacity="0.2">
<path opacity="0.2" d="M5.46872 13.2661V10.1722V10.141H5.47185C5.48943 7.57763 7.58897 5.48474 10.1564 5.48474H5.46872C2.89075 5.48474 0.78125 7.59444 0.78125 10.1722V66.391H5.46872V61.7035V13.2661Z" fill="#3A2C6D"/>
</g>
<g opacity="0.3">
<path opacity="0.3" d="M94.5309 13.2661V10.1722V10.141H94.5277C94.5094 7.57763 92.41 5.48474 89.8432 5.48474H94.5307C97.1096 5.48474 99.2181 7.59444 99.2181 10.1722V66.391H94.5307V61.7035V13.2661H94.5309Z" fill="#3A2C6D"/>
</g>
<g opacity="0.1">
<path opacity="0.1" d="M60.8351 83.5786L60.1406 80.4536C53.4851 80.4536 46.5154 80.4536 39.8589 80.4536L39.1646 83.5786H60.8351Z" fill="#3A2C6D"/>
</g>
<path d="M94.5309 94.5313C91.8912 94.5313 79.9834 94.5313 77.3434 94.5313C74.7036 94.5313 72.6559 92.4835 72.6559 89.8438V86.7188C72.6711 89.2824 74.78 91.3758 77.3434 91.3758H94.5309C97.0947 91.3758 99.1879 89.2976 99.2184 86.7493V89.8438C99.2186 92.4835 97.171 94.5313 94.5309 94.5313Z" fill="#5D9CEC"/>
<g opacity="0.3">
<path opacity="0.3" d="M75.978 91.1467C74.0767 90.5577 72.6684 88.8029 72.6561 86.7186V89.8436C72.6561 92.4833 74.7038 94.5311 77.3435 94.5311C77.9572 94.5311 79.0862 94.5311 80.4685 94.5311C78.2867 94.5313 76.5289 93.1227 75.978 91.1467Z" fill="#3A2C6D"/>
</g>
<g opacity="0.2">
<path opacity="0.2" d="M95.8967 91.1467C97.7979 90.5577 99.2063 88.8029 99.2186 86.7186V89.8436C99.2186 92.4833 97.1712 94.5311 94.5311 94.5311C93.9179 94.5311 92.7885 94.5311 91.4061 94.5311C93.5881 94.5313 95.346 93.1227 95.8967 91.1467Z" fill="#3A2C6D"/>
</g>
<path d="M82.0767 71.0937C82.0767 71.9527 81.375 72.6562 80.5142 72.6562C79.6568 72.6562 78.9517 71.9527 78.9517 71.0937C78.9517 70.2347 79.6568 69.5312 80.5142 69.5312C81.3752 69.5314 82.0767 70.2346 82.0767 71.0937Z" fill="#FFCE54"/>
<path d="M85.1559 72.6257L87.4541 76.109L86.7184 77.3439H82.0309L85.1559 72.6257Z" fill="#E6E9ED"/>
<path d="M91.4059 69.5008L96.0934 77.3439H86.7184L87.4542 76.109L91.4059 69.5008Z" fill="#F5F7FA"/>
<path d="M85.9831 86.7188C86.8435 86.7188 87.5456 87.4223 87.5456 88.2813C87.5456 89.1403 86.8435 89.8438 85.9831 89.8438C85.1253 89.8438 84.4206 89.1403 84.4206 88.2813C84.4206 87.4223 85.1255 86.7188 85.9831 86.7188Z" fill="#5D9CEC"/>
<path d="M96.0934 66.4062H75.781V77.3437H82.031H86.7185H96.0934V66.4062ZM96.0934 53.9061H75.781V63.2811H96.0936V53.9061H96.0934ZM77.3435 47.6251H94.5311C97.1101 47.6251 99.2186 49.7346 99.2186 52.3133V86.6883C99.2186 86.7036 99.2186 86.7341 99.2186 86.7493C99.1881 89.2976 97.0948 91.3758 94.5311 91.3758H77.3435C74.7802 91.3758 72.6713 89.2823 72.6561 86.7188C72.6561 86.7036 72.6561 86.7036 72.6561 86.6883V52.3133C72.6561 49.7346 74.765 47.6251 77.3435 47.6251ZM87.5458 88.2811C87.5458 87.4221 86.8437 86.7186 85.9833 86.7186C85.1255 86.7186 84.4209 87.4221 84.4209 88.2811C84.4209 89.1401 85.1255 89.8436 85.9833 89.8436C86.8437 89.8438 87.5458 89.1405 87.5458 88.2811Z" fill="#656D78"/>
<g opacity="0.2">
<path opacity="0.2" d="M75.781 86.7188C75.781 86.7036 75.781 86.7036 75.781 86.6884V77.3439V66.4065V63.2815V53.9065V52.3136C75.781 49.7348 77.89 47.6253 80.4685 47.6253H77.3435C74.765 47.6253 72.6561 49.7348 72.6561 52.3136V86.6886C72.6561 86.7038 72.6561 86.7038 72.6561 86.719C72.6713 89.2826 74.7802 91.376 77.3435 91.376H80.4685C77.9052 91.3756 75.7963 89.2822 75.781 86.7188Z" fill="#3A2C6D"/>
</g>
<g opacity="0.3">
<path opacity="0.3" d="M96.0934 86.7188C96.0934 86.7036 96.0934 86.7036 96.0934 86.6884V77.3439V66.4065V63.2815V53.9065V52.3136C96.0934 49.7348 93.9848 47.6253 91.4059 47.6253H94.5309C97.1098 47.6253 99.2183 49.7348 99.2183 52.3136V86.6886C99.2183 86.7038 99.2183 86.7038 99.2183 86.719C99.2031 89.2826 97.0946 91.376 94.5309 91.376H91.4059C93.9696 91.3756 96.0781 89.2822 96.0934 86.7188Z" fill="#3A2C6D"/>
</g>
<path d="M80.5142 72.6562C81.3749 72.6562 82.0767 71.9527 82.0767 71.0937C82.0767 70.2347 81.3749 69.5312 80.5142 69.5312C79.6568 69.5312 78.9517 70.2347 78.9517 71.0937C78.9517 71.9527 79.657 72.6562 80.5142 72.6562ZM85.156 72.6257L82.031 77.3437H75.781V66.4062H96.0936V77.3437L91.4061 69.5008L87.4542 76.1092L85.156 72.6257Z" fill="#5D9CEC"/>
<path d="M96.0932 53.9073H75.7816V63.2822H96.0932V53.9073Z" fill="#48CFAD"/>
<path d="M17.9688 39.8439C16.2346 39.8439 14.8439 41.2347 14.8439 42.9689C14.8439 44.7031 16.2346 46.0939 17.9688 46.0939C19.7031 46.0939 21.0938 44.7031 21.0938 42.9689C21.0938 41.2347 19.7029 39.8439 17.9688 39.8439ZM10.1562 35.1562H47.6562V57.0315H46.0937L35.9375 41.4066L28.8598 52.2815L25.7813 47.6718L19.5313 57.0315H10.1562V35.1562Z" fill="#5D9CEC"/>
<path d="M17.9689 39.8439C19.7031 39.8439 21.0938 41.2347 21.0938 42.9689C21.0938 44.7031 19.7031 46.0939 17.9689 46.0939C16.2346 46.0939 14.8439 44.7031 14.8439 42.9689C14.8439 41.2347 16.2346 39.8439 17.9689 39.8439Z" fill="#FFCE54"/>
<path d="M28.8598 52.2813L25.7813 57.0311H19.5313L25.7813 47.6714L28.8598 52.2813Z" fill="#E6E9ED"/>
<path d="M35.9375 41.4064L46.0937 57.0311H25.7813L28.8598 52.2813L35.9375 41.4064Z" fill="#F5F7FA"/>
<g opacity="0.3">
<path opacity="0.3" d="M77.3441 53.9073H75.7816V63.2822H77.3441V53.9073Z" fill="#3A2C6D"/>
</g>
<g opacity="0.2">
<path opacity="0.2" d="M96.0928 53.9073H94.5303V63.2822H96.0928V53.9073Z" fill="#3A2C6D"/>
</g>
<g opacity="0.3">
<path opacity="0.3" d="M77.3441 66.4065H75.7816V77.2626H77.3441V66.4065Z" fill="#3A2C6D"/>
</g>
<g opacity="0.2">
<path opacity="0.2" d="M96.0928 66.4065H94.5303V77.2626H96.0928V66.4065Z" fill="#3A2C6D"/>
</g>
<g opacity="0.3">
<path opacity="0.3" d="M13.2812 35.1566H10.1562V57.0311H13.2812V35.1566Z" fill="#3A2C6D"/>
</g>
<g opacity="0.2">
<path opacity="0.2" d="M47.6567 35.1566H44.5317V57.0311H47.6567V35.1566Z" fill="#3A2C6D"/>
</g>
<g opacity="0.2">
<path opacity="0.2" d="M89.8428 17.9688H86.7178V30.4688H89.8428V17.9688Z" fill="#3A2C6D"/>
</g>
<g opacity="0.3">
<path opacity="0.3" d="M13.2812 17.9688H10.1562V30.4688H13.2812V17.9688Z" fill="#3A2C6D"/>
</g>
<path d="M8.64037 12.4999C8.20921 12.4999 7.8515 12.1506 7.8515 11.7187C7.8515 11.2869 8.19338 10.9374 8.62513 10.9374H8.64037C9.07211 10.9374 9.42161 11.2869 9.42161 11.7187C9.42161 12.1506 9.07192 12.4999 8.64037 12.4999Z" fill="#3A2C6D"/>
<path d="M11.7654 12.4999C11.3342 12.4999 10.9765 12.1506 10.9765 11.7187C10.9765 11.2869 11.3184 10.9374 11.7501 10.9374H11.7654C12.1971 10.9374 12.5466 11.2869 12.5466 11.7187C12.5466 12.1506 12.1971 12.4999 11.7654 12.4999Z" fill="#3A2C6D"/>
<path d="M14.8904 12.4999C14.4592 12.4999 14.1015 12.1506 14.1015 11.7187C14.1015 11.2869 14.4434 10.9374 14.8751 10.9374H14.8904C15.3221 10.9374 15.6716 11.2869 15.6716 11.7187C15.6716 12.1506 15.3221 12.4999 14.8904 12.4999Z" fill="#3A2C6D"/>
<path d="M71.0935 67.1568H0.781245C0.349499 67.1568 0 66.8058 0 66.3756C0 65.9423 0.349499 65.5943 0.781245 65.5943H71.0935C71.5255 65.5943 71.875 65.9423 71.875 66.3756C71.875 66.8058 71.5255 67.1568 71.0935 67.1568Z" fill="#3A2C6D"/>
<path d="M49.9999 74.9695C48.2765 74.9695 46.8749 73.5672 46.8749 71.8445C46.8749 70.1202 48.2765 68.7195 49.9999 68.7195C51.7242 68.7195 53.1249 70.1202 53.1249 71.8445C53.1249 73.5674 51.7242 74.9695 49.9999 74.9695ZM49.9999 70.2818C49.1386 70.2818 48.4374 70.9822 48.4374 71.8443C48.4374 72.7049 49.1386 73.4068 49.9999 73.4068C50.8611 73.4068 51.5624 72.7049 51.5624 71.8443C51.5624 70.9824 50.8611 70.2818 49.9999 70.2818Z" fill="#3A2C6D"/>
<path d="M36.7348 95.2818C36.6783 95.2818 36.6211 95.2758 36.5638 95.2635C36.1426 95.1689 35.8779 94.7506 35.9711 94.3296L39.0924 80.319C39.1617 79.956 39.4784 79.672 39.8592 79.672C40.2909 79.672 40.6404 80.0047 40.6404 80.438V80.4684C40.6404 80.5265 40.6344 80.5829 40.6221 80.6392L37.4969 94.6698C37.4154 95.0345 37.0925 95.2818 36.7348 95.2818Z" fill="#3A2C6D"/>
<path d="M63.2656 95.2818C62.9073 95.2818 62.5854 95.0345 62.503 94.6698L59.378 80.6394C59.3659 80.5831 59.3596 80.5267 59.3596 80.4686C59.3596 80.0367 59.7091 79.6721 60.1407 79.6721C60.5498 79.6721 60.8854 79.9712 60.919 80.3694L64.0287 94.3296C64.1219 94.7506 63.8578 95.1689 63.4366 95.2635C63.3786 95.276 63.3207 95.2818 63.2656 95.2818Z" fill="#3A2C6D"/>
<path d="M65.6248 95.2819H34.375C33.9431 95.2819 33.5938 94.9308 33.5938 94.5006C33.5938 94.0671 33.9431 93.7194 34.375 93.7194H65.6248C66.0568 93.7194 66.4059 94.0671 66.4059 94.5006C66.4061 94.9308 66.0568 95.2819 65.6248 95.2819Z" fill="#3A2C6D"/>
<path d="M94.5309 92.1569H77.3433C74.3465 92.1569 71.8931 89.7186 71.8748 86.7233V52.3133C71.8748 49.2974 74.3283 46.8438 77.3433 46.8438H94.5309C97.5461 46.8438 99.9998 49.2976 99.9998 52.3133V86.6883C99.9633 89.7354 97.5093 92.1569 94.5309 92.1569ZM77.3435 48.4061C75.1892 48.4061 73.4374 50.1587 73.4374 52.3132V86.6881C73.4496 88.8533 75.2029 90.5944 77.3435 90.5944H94.5311C96.6583 90.5944 98.4115 88.8641 98.4375 86.7401V52.3133C98.4375 50.1589 96.6857 48.4063 94.5311 48.4063L77.3435 48.4061Z" fill="#3A2C6D"/>
<path d="M96.0934 64.0623H75.781C75.3494 64.0623 74.9999 63.7128 74.9999 63.2811V53.9062C74.9999 53.4744 75.3494 53.1249 75.781 53.1249H96.0936C96.5255 53.1249 96.875 53.4744 96.875 53.9062V63.2811C96.8748 63.7128 96.5253 64.0623 96.0934 64.0623ZM76.5624 62.5H95.3125V54.6876H76.5624V62.5Z" fill="#3A2C6D"/>
<path d="M96.0934 78.125H75.781C75.3494 78.125 74.9999 77.7755 74.9999 77.3437V66.4063C74.9999 65.9745 75.3494 65.625 75.781 65.625H96.0936C96.5255 65.625 96.875 65.9745 96.875 66.4063V77.3437C96.8748 77.7755 96.5253 78.125 96.0934 78.125ZM76.5624 76.5627H95.3125V67.1877H76.5624V76.5627Z" fill="#3A2C6D"/>
<path d="M88.2809 51.5624H83.5934C83.1619 51.5624 82.8124 51.2129 82.8124 50.7811C82.8124 50.3494 83.1619 49.9999 83.5934 49.9999H88.2809C88.7128 49.9999 89.0623 50.3494 89.0623 50.7811C89.0623 51.2129 88.7128 51.5624 88.2809 51.5624Z" fill="#3A2C6D"/>
<path d="M93.0143 57.8124H78.9519C78.5219 57.8124 78.1708 57.4629 78.1708 57.0311C78.1708 56.5994 78.5219 56.2499 78.9519 56.2499H93.0143C93.4478 56.2499 93.7957 56.5994 93.7957 57.0311C93.7957 57.4629 93.4476 57.8124 93.0143 57.8124Z" fill="#3A2C6D"/>
<path d="M89.8434 60.9373H82.1255C81.6924 60.9373 81.3445 60.5878 81.3445 60.1561C81.3445 59.7244 81.6924 59.3748 82.1255 59.3748H89.8434C90.2754 59.3748 90.6249 59.7244 90.6249 60.1561C90.6249 60.5878 90.2754 60.9373 89.8434 60.9373Z" fill="#3A2C6D"/>
<path d="M85.9831 90.625C84.6924 90.625 83.6392 89.5736 83.6392 88.2813C83.6392 86.9888 84.6924 85.9376 85.9831 85.9376C87.277 85.9376 88.3266 86.9888 88.3266 88.2813C88.3268 89.5734 87.277 90.625 85.9831 90.625ZM85.9831 87.5C85.5527 87.5 85.2017 87.8509 85.2017 88.2813C85.2017 88.7115 85.5527 89.0625 85.9831 89.0625C86.415 89.0625 86.7641 88.7115 86.7641 88.2813C86.7643 87.8507 86.415 87.5 85.9831 87.5Z" fill="#3A2C6D"/>
<path d="M96.0934 81.2499H75.781C75.3494 81.2499 74.9999 80.9004 74.9999 80.4686C74.9999 80.0367 75.3494 79.6874 75.781 79.6874H96.0936C96.5255 79.6874 96.875 80.0367 96.875 80.4686C96.8748 80.9004 96.5253 81.2499 96.0934 81.2499Z" fill="#3A2C6D"/>
<path d="M96.0934 84.3751H75.781C75.3494 84.3751 74.9999 84.0256 74.9999 83.5939C74.9999 83.1619 75.3494 82.8126 75.781 82.8126H96.0936C96.5255 82.8126 96.875 83.1619 96.875 83.5939C96.8748 84.0254 96.5253 84.3751 96.0934 84.3751Z" fill="#3A2C6D"/>
<path d="M86.7185 78.1249C86.5811 78.1249 86.4438 78.0898 86.319 78.0151C85.9482 77.7953 85.8274 77.3148 86.0472 76.944L90.7347 69.0981C90.8767 68.8631 91.1311 68.7195 91.4059 68.7195C91.6806 68.7195 91.9355 68.8629 92.0776 69.0995L96.765 76.9438C96.9848 77.3132 96.8658 77.7922 96.4933 78.0149C96.1239 78.2331 95.645 78.1126 95.4223 77.7432L91.4059 71.0234L87.3899 77.7432C87.2436 77.9876 86.984 78.1249 86.7185 78.1249Z" fill="#3A2C6D"/>
<path d="M82.031 78.1249C81.8813 78.1249 81.7323 78.0821 81.601 77.9952C81.2407 77.7571 81.1415 77.272 81.3796 76.9135L84.5046 72.194C84.6496 71.9758 84.8934 71.8445 85.156 71.8445C85.4185 71.8445 85.6643 71.9758 85.8092 72.1955L88.1055 75.679C88.3421 76.0406 88.2444 76.5243 87.8846 76.7609C87.5227 76.9989 87.039 76.8983 86.8009 76.5396L85.1544 74.0417L82.6827 77.7739C82.5315 78.0028 82.2844 78.1249 82.031 78.1249Z" fill="#3A2C6D"/>
<path d="M25.7805 57.8124C25.6347 57.8124 25.4874 57.7727 25.3562 57.6871C24.9945 57.4521 24.8908 56.9684 25.1258 56.607L35.2828 40.9797C35.427 40.7584 35.6735 40.625 35.9375 40.625C36.202 40.625 36.4485 40.7586 36.5927 40.9805L46.7489 56.6054C46.9839 56.967 46.8808 57.4506 46.5191 57.6871C46.1583 57.9222 45.6738 57.8184 45.438 57.4566L35.9365 42.8388L26.4363 57.4551C26.2871 57.6875 26.0368 57.8124 25.7805 57.8124Z" fill="#3A2C6D"/>
<path d="M19.5306 57.8124C19.3817 57.8124 19.2307 57.7696 19.0973 57.6811C18.7388 57.4414 18.6417 56.9563 18.8814 56.5978L25.1314 47.2373C25.4211 46.8038 26.1414 46.8038 26.4313 47.2373L29.5098 51.8463C29.7495 52.2063 29.6524 52.6914 29.2939 52.9311C28.9331 53.1677 28.4486 53.0731 28.2098 52.7158L25.7813 49.0782L20.1813 57.4644C20.0301 57.6903 19.783 57.8124 19.5306 57.8124Z" fill="#3A2C6D"/>
<path d="M80.5142 73.4376C79.2235 73.4376 78.1707 72.3862 78.1707 71.0939C78.1707 69.8014 79.2235 68.7502 80.5142 68.7502C81.8081 68.7502 82.8581 69.8014 82.8581 71.0939C82.8581 72.386 81.8081 73.4376 80.5142 73.4376ZM80.5142 70.3126C80.0842 70.3126 79.7331 70.6637 79.7331 71.0939C79.7331 71.5241 80.0842 71.8751 80.5142 71.8751C80.9461 71.8751 81.2956 71.5241 81.2956 71.0939C81.2956 70.6637 80.9461 70.3126 80.5142 70.3126Z" fill="#3A2C6D"/>
<path d="M17.9688 46.8749C15.8151 46.8749 14.0626 45.1223 14.0626 42.9687C14.0626 40.815 15.8151 39.0625 17.9688 39.0625C20.1224 39.0625 21.875 40.815 21.875 42.9687C21.875 45.1223 20.1224 46.8749 17.9688 46.8749ZM17.9688 40.625C16.6763 40.625 15.6251 41.6764 15.6251 42.9687C15.6251 44.261 16.6763 45.3124 17.9688 45.3124C19.2611 45.3124 20.3125 44.261 20.3125 42.9687C20.3125 41.6764 19.2611 40.625 17.9688 40.625Z" fill="#3A2C6D"/>
<path d="M94.5309 14.0624H5.46868C5.03694 14.0624 4.68744 13.7131 4.68744 13.2812C4.68744 12.8494 5.03694 12.4999 5.46868 12.4999H94.5309C94.9628 12.4999 95.3123 12.8494 95.3123 13.2812C95.3123 13.7133 94.9628 14.0624 94.5309 14.0624Z" fill="#3A2C6D"/>
<path d="M89.8434 31.2498H10.1562C9.72444 31.2498 9.37494 30.9005 9.37494 30.4686V17.9688C9.37494 17.5371 9.72444 17.1876 10.1562 17.1876H89.8434C90.2753 17.1876 90.6248 17.5371 90.6248 17.9688V30.4688C90.6248 30.9007 90.2753 31.2498 89.8434 31.2498ZM10.9374 29.6873H89.0624V18.7501H10.9374V29.6873Z" fill="#3A2C6D"/>
<path d="M47.6562 57.8124H10.1562C9.72444 57.8124 9.37494 57.4629 9.37494 57.0311V35.1562C9.37494 34.7245 9.72444 34.375 10.1562 34.375H47.6562C48.0879 34.375 48.4374 34.7245 48.4374 35.1562V57.0315C48.4374 57.4629 48.0879 57.8124 47.6562 57.8124ZM10.9374 56.2501H46.8749V35.9377H10.9374V56.2501Z" fill="#3A2C6D"/>
<path d="M89.8434 42.1875H52.3434C51.9119 42.1875 51.5624 41.838 51.5624 41.4062C51.5624 40.9745 51.9119 40.625 52.3434 40.625H89.8434C90.2753 40.625 90.6248 40.9745 90.6248 41.4062C90.6248 41.838 90.2753 42.1875 89.8434 42.1875Z" fill="#3A2C6D"/>
<path d="M89.8434 37.5001H52.3434C51.9119 37.5001 51.5624 37.1508 51.5624 36.7189C51.5624 36.2872 51.9119 35.9377 52.3434 35.9377H89.8434C90.2753 35.9377 90.6248 36.2872 90.6248 36.7189C90.6248 37.1506 90.2753 37.5001 89.8434 37.5001Z" fill="#3A2C6D"/>
<path d="M71.0935 46.8749H52.3434C51.9119 46.8749 51.5624 46.5254 51.5624 46.0937C51.5624 45.6619 51.9119 45.3124 52.3434 45.3124H71.0935C71.5255 45.3124 71.875 45.6619 71.875 46.0937C71.875 46.5254 71.5255 46.8749 71.0935 46.8749Z" fill="#3A2C6D"/>
<path d="M69.531 51.5624H52.3434C51.9119 51.5624 51.5624 51.2129 51.5624 50.7811C51.5624 50.3494 51.9119 49.9999 52.3434 49.9999H69.531C69.963 49.9999 70.3125 50.3494 70.3125 50.7811C70.3125 51.2129 69.963 51.5624 69.531 51.5624Z" fill="#3A2C6D"/>
<path d="M69.531 56.25H52.3434C51.9119 56.25 51.5624 55.9006 51.5624 55.4688C51.5624 55.0371 51.9119 54.6876 52.3434 54.6876H69.531C69.963 54.6876 70.3125 55.0371 70.3125 55.4688C70.3125 55.9006 69.963 56.25 69.531 56.25Z" fill="#3A2C6D"/>
<path d="M99.2186 10.9374C98.787 10.9374 98.4375 10.5881 98.4375 10.1562C98.4375 7.92928 96.759 6.24996 94.5311 6.24996H5.46872C3.24181 6.24996 1.56249 7.92928 1.56249 10.1562C1.56249 10.5881 1.21299 10.9374 0.781245 10.9374C0.349499 10.9374 0 10.5883 0 10.1562C0 7.09001 2.40254 4.68747 5.46872 4.68747H94.5309C97.5979 4.68747 99.9998 7.09001 99.9998 10.1562C100 10.5881 99.6503 10.9374 99.2186 10.9374Z" fill="#3A2C6D"/>
<path d="M71.0935 81.2499H5.46872C2.40254 81.2499 0 78.8481 0 75.7812V72.6562C0 72.2244 0.349499 71.8749 0.781245 71.8749C1.21299 71.8749 1.56249 72.2244 1.56249 72.6562V75.7812C1.56249 78.0089 3.24181 79.6874 5.46872 79.6874H71.0935C71.5255 79.6874 71.875 80.0367 71.875 80.4686C71.875 80.9004 71.5255 81.2499 71.0935 81.2499Z" fill="#3A2C6D"/>
<path d="M71.0935 78.1097H5.46872C2.42012 78.1097 0.0175824 75.7171 0 72.6607V69.5158C0 69.0841 0.349499 68.7346 0.781245 68.7346C1.21299 68.7346 1.56249 69.0841 1.56249 69.5158V72.6408C1.57538 74.8716 3.2547 76.547 5.46872 76.547H71.0935C71.5255 76.547 71.875 76.8965 71.875 77.3283C71.875 77.76 71.5255 78.1097 71.0935 78.1097Z" fill="#3A2C6D"/>
<path d="M0.781245 70.297C0.349499 70.297 0 69.9475 0 69.5158V10.1562C0 9.72444 0.349499 9.37494 0.781245 9.37494C1.21299 9.37494 1.56249 9.72444 1.56249 10.1562V69.516C1.56249 69.9475 1.21299 70.297 0.781245 70.297Z" fill="#3A2C6D"/>
<path d="M99.2185 48.4374C98.787 48.4374 98.4375 48.0879 98.4375 47.6562V10.1562C98.4375 9.72444 98.787 9.37494 99.2185 9.37494C99.6505 9.37494 100 9.72444 100 10.1562V47.6562C100 48.0879 99.6503 48.4374 99.2185 48.4374Z" fill="#3A2C6D"/>
<path d="M94.5309 10.9374H5.46868C5.03694 10.9374 4.68744 10.5881 4.68744 10.1562C4.68744 9.72444 5.03694 9.37494 5.46868 9.37494H94.5309C94.9628 9.37494 95.3123 9.72444 95.3123 10.1562C95.3123 10.5881 94.9628 10.9374 94.5309 10.9374Z" fill="#3A2C6D"/>
<path d="M71.0935 62.5H5.46868C5.03694 62.5 4.68744 62.1505 4.68744 61.7188C4.68744 61.287 5.03694 60.9375 5.46868 60.9375H71.0935C71.5254 60.9375 71.8749 61.287 71.8749 61.7188C71.8749 62.1505 71.5254 62.5 71.0935 62.5Z" fill="#3A2C6D"/>
<path d="M5.46868 62.5C5.03694 62.5 4.68744 62.1505 4.68744 61.7188V10.1562C4.68744 9.72444 5.03694 9.37494 5.46868 9.37494C5.90043 9.37494 6.24993 9.72444 6.24993 10.1562V61.7188C6.24993 62.1505 5.90063 62.5 5.46868 62.5Z" fill="#3A2C6D"/>
<path d="M94.5309 46.8749C94.0993 46.8749 93.7498 46.5254 93.7498 46.0937V10.1562C93.7498 9.72444 94.0993 9.37494 94.5309 9.37494C94.9628 9.37494 95.3123 9.72444 95.3123 10.1562V46.0937C95.3123 46.5254 94.9628 46.8749 94.5309 46.8749Z" fill="#3A2C6D"/>
<path d="M94.5309 95.3123H77.3433C74.2763 95.3123 71.8748 92.9106 71.8748 89.8436V86.7187C71.8748 86.2867 72.2243 85.9374 72.6558 85.9374C73.0878 85.9374 73.4372 86.2867 73.4372 86.7187V89.8436C73.4372 92.0713 75.1158 93.7499 77.3433 93.7499H94.5309C96.7588 93.7499 98.4373 92.0713 98.4373 89.8436V86.7491C98.4373 86.3188 98.7868 85.9679 99.2183 85.9679C99.6503 85.9679 99.9998 86.3188 99.9998 86.7491V89.8436C100 92.9106 97.598 95.3123 94.5309 95.3123Z" fill="#3A2C6D"/>
<path d="M83.5935 25H16.4062C15.9744 25 15.6249 24.6507 15.6249 24.2188C15.6249 23.787 15.9744 23.4375 16.4062 23.4375H83.5935C84.0254 23.4375 84.3749 23.787 84.3749 24.2188C84.3749 24.6505 84.0254 25 83.5935 25Z" fill="#3A2C6D"/>
</svg>
