<svg width="100" height="100" viewBox="0 0 100 100" fill="none" xmlns="http://www.w3.org/2000/svg">
<path d="M94.5311 13.2659V61.7034H5.46875V13.2659H11.7187H17.9687H24.2187H30.4687H36.7186H71.0935H74.2185H77.3435H80.4684H83.5934H88.2809H91.4059H94.5311ZM80.4686 35.1408V25.7659H74.2187V22.6409H67.9687L66.4062 25.7659V35.1408H80.4686ZM75.0001 58.5785L71.8751 53.891H69.0629L70.3124 47.641H62.5L63.7495 53.891H59.3748V55.4535L55.4684 47.641L51.5623 55.4535V53.891H47.6561C48.7966 52.359 48.6876 50.1725 47.2968 48.7809C45.7656 47.2655 43.2966 47.2655 41.7656 48.7809C40.3748 50.1725 40.2656 52.359 41.4063 53.891H37.5001V47.641H29.6876V53.891H28.1251L25.0001 58.5785H75.0001ZM57.031 35.1408V25.7659H50.7811V22.6409H44.5313L42.9688 25.7659V35.1408H57.031ZM33.5938 35.1408V25.7659H27.3439V22.6409H21.0939L19.5314 25.7659V35.1408H33.5938Z" fill="#5D9CEC"/>
<path d="M94.5311 13.2659V61.7034H5.46875V13.2659H11.7187H17.9687H24.2187H30.4687H36.7186H71.0935H74.2185H77.3435H80.4684H83.5934H88.2809H91.4059H94.5311ZM80.4686 35.1408V25.7659H74.2187V22.6409H67.9687L66.4062 25.7659V35.1408H80.4686ZM75.0001 58.5785L71.8751 53.891H69.0629L70.3124 47.641H62.5L63.7495 53.891H59.3748V55.4535L55.4684 47.641L51.5623 55.4535V53.891H47.6561C48.7966 52.359 48.6876 50.1725 47.2968 48.7809C45.7656 47.2655 43.2966 47.2655 41.7656 48.7809C40.3748 50.1725 40.2656 52.359 41.4063 53.891H37.5001V47.641H29.6876V53.891H28.1251L25.0001 58.5785H75.0001ZM57.031 35.1408V25.7659H50.7811V22.6409H44.5313L42.9688 25.7659V35.1408H57.031ZM33.5938 35.1408V25.7659H27.3439V22.6409H21.0939L19.5314 25.7659V35.1408H33.5938Z" fill="#5D9CEC"/>
<path d="M71.875 53.891L75 58.5785H25L28.125 53.891H29.6875V55.4535H37.5V53.891H41.4062C41.5152 54.0315 41.6252 54.1719 41.7655 54.312C43.2967 55.8288 45.7657 55.8288 47.2967 54.312C47.4372 54.1717 47.547 54.0313 47.656 53.891H51.5622V55.4535H59.3747V53.891H63.7494L64.0624 55.4535H68.7498L69.0628 53.891H71.875Z" fill="#E6E9ED"/>
<path d="M37.5002 53.891V55.4535H29.6877V53.891V47.641H37.5002V53.891Z" fill="#ED5564"/>
<g opacity="0.2">
<path opacity="0.2" d="M31.2502 47.641H29.6877V53.891V55.4535H31.2502V53.891V47.641Z" fill="#3A2C6D"/>
</g>
<path d="M47.2969 48.781C48.6877 50.1725 48.7969 52.359 47.6562 53.891H47.641C47.5312 54.0315 47.422 54.172 47.2967 54.312C45.7655 55.8288 43.2965 55.8288 41.7655 54.312C41.6403 54.1718 41.5313 54.0313 41.4215 53.891H41.4062C40.2655 52.359 40.3747 50.1725 41.7655 48.781C43.2967 47.2656 45.7657 47.2656 47.2969 48.781Z" fill="#48CFAD"/>
<g opacity="0.2">
<path opacity="0.2" d="M43.328 54.312C43.2028 54.1717 43.0937 54.0313 42.984 53.891H42.9687C41.828 52.359 41.9372 50.1725 43.328 48.781C43.8934 48.2224 44.5861 47.8731 45.3125 47.725C44.0704 47.4748 42.7321 47.8243 41.7655 48.781C40.3747 50.1725 40.2655 52.359 41.4062 53.891H41.4215C41.5313 54.0315 41.6403 54.1719 41.7655 54.312C42.7321 55.2687 44.0704 55.6184 45.3125 55.3679C44.5861 55.2216 43.8934 54.8721 43.328 54.312Z" fill="#3A2C6D"/>
</g>
<path d="M70.3127 47.641L69.063 53.891L68.7502 55.4535H64.0625L63.7497 53.891L62.5 47.641H70.3127Z" fill="#656D78"/>
<g opacity="0.2">
<path opacity="0.2" d="M64.0625 47.641H62.5L63.7497 53.891L64.0625 55.4535H65.625L65.3122 53.891L64.0625 47.641Z" fill="#3A2C6D"/>
</g>
<path d="M55.4685 47.641L59.375 55.4535H51.5625L55.4685 47.641Z" fill="#AC92EC"/>
<g opacity="0.2">
<path opacity="0.2" d="M55.4685 47.641L51.5625 55.4535H53.125L56.25 49.2035L55.4685 47.641Z" fill="#3A2C6D"/>
</g>
<g opacity="0.1">
<path opacity="0.1" d="M94.531 72.6716V72.6411V66.3911H99.2185V72.6411V72.6716C99.2185 75.2503 97.1099 77.359 94.531 77.359H89.8435C92.4225 77.359 94.531 75.2503 94.531 72.6716Z" fill="black"/>
</g>
<path d="M11.7195 10.141H5.46948V13.266H11.7195V10.141Z" fill="#AAB2BC"/>
<path d="M17.9692 10.141H11.7192V13.266H17.9692V10.141Z" fill="#3A2C6D"/>
<path d="M24.2187 10.141H17.9688V13.266H24.2187V10.141Z" fill="#3A2C6D"/>
<path d="M30.4682 10.141H24.2183V13.266H30.4682V10.141Z" fill="#3A2C6D"/>
<path d="M36.7199 10.141H30.47V13.266H36.7199V10.141Z" fill="#3A2C6D"/>
<path d="M71.0951 10.141H36.7195V13.266H71.0951V10.141Z" fill="#3A2C6D"/>
<path d="M94.5317 10.141H91.4067V13.266H94.5317V10.141Z" fill="#AAB2BC"/>
<path d="M91.406 10.141H88.281V13.266H91.406V10.141Z" fill="#AAB2BC"/>
<path d="M88.2817 10.141H83.5942V13.266H88.2817V10.141Z" fill="#AAB2BC"/>
<path d="M83.5935 10.141H80.4685V13.266H83.5935V10.141Z" fill="#3A2C6D"/>
<path d="M80.4678 10.141H77.3428V13.266H80.4678V10.141Z" fill="#3A2C6D"/>
<path d="M77.344 10.141H74.219V13.266H77.344V10.141Z" fill="#3A2C6D"/>
<path d="M74.2182 10.141H71.0933V13.266H74.2182V10.141Z" fill="#3A2C6D"/>
<path d="M74.2187 22.6409V25.7659H66.4062L67.9687 22.6409H74.2187Z" fill="#F6BB42"/>
<path d="M80.4687 25.7659V35.1409H66.4062V25.7659H74.2187H80.4687Z" fill="#FFCE54"/>
<path d="M27.344 22.6409V25.7659H19.5315L21.094 22.6409H27.344Z" fill="#F6BB42"/>
<path d="M50.781 22.6409V25.7659H42.9688L44.5312 22.6409H50.781Z" fill="#F6BB42"/>
<path d="M57.031 25.7659V35.1409H42.9688V25.7659H50.781H57.031Z" fill="#FFCE54"/>
<path d="M33.5939 25.7659V35.1409H19.5315V25.7659H27.344H33.5939Z" fill="#FFCE54"/>
<g opacity="0.3">
<path opacity="0.3" d="M24.219 22.6409H21.094L19.5315 25.7659V35.1409H22.6565V25.7659L24.219 22.6409Z" fill="#3A2C6D"/>
</g>
<g opacity="0.3">
<path opacity="0.3" d="M47.6562 22.6409H44.5312L42.9688 25.7659V35.1409H46.0937V25.7659L47.6562 22.6409Z" fill="#3A2C6D"/>
</g>
<g opacity="0.3">
<path opacity="0.3" d="M71.0937 22.6409H67.9687L66.4062 25.7659V35.1409H69.5312V25.7659L71.0937 22.6409Z" fill="#3A2C6D"/>
</g>
<g opacity="0.2">
<path opacity="0.2" d="M8.59447 13.2659H5.46948V61.7036H8.59447V13.2659Z" fill="#3A2C6D"/>
</g>
<g opacity="0.2">
<path opacity="0.2" d="M94.5317 13.2659H91.4067V61.7036H94.5317V13.2659Z" fill="black"/>
</g>
<path d="M50 69.5159C51.297 69.5159 52.3435 70.5627 52.3435 71.8597C52.3435 73.1567 51.297 74.2034 50 74.2034C48.703 74.2034 47.6562 73.1567 47.6562 71.8597C47.6562 70.5627 48.703 69.5159 50 69.5159Z" fill="#5D9CEC"/>
<path d="M99.2188 72.6716V75.7661C99.2188 78.406 97.1714 80.4536 94.5313 80.4536C93.4221 80.4536 77.9222 80.4536 60.141 80.4536C53.4855 80.4536 46.5158 80.4536 39.8593 80.4536C22.0781 80.4536 6.57823 80.4536 5.46898 80.4536C2.82848 80.4536 0.781494 78.406 0.781494 75.7661V72.6716C0.781494 75.2504 2.891 77.3591 5.46898 77.3591H50.0001H94.5311C97.1103 77.3591 99.2188 75.2504 99.2188 72.6716Z" fill="#3A2C6D"/>
<path d="M60.1409 80.4536L63.2659 94.5161H36.7341L39.8591 80.4536C46.5158 80.4536 53.4853 80.4536 60.1409 80.4536Z" fill="#3A2C6D"/>
<g opacity="0.5">
<path opacity="0.5" d="M39.1653 83.5786L36.7339 94.5161H39.8589L42.2903 83.5786H39.1653Z" fill="#3A2C6D"/>
</g>
<g opacity="0.1">
<path opacity="0.1" d="M60.8337 83.5786L63.2658 94.5161H60.1408L57.7087 83.5786H60.8337Z" fill="black"/>
</g>
<g opacity="0.5">
<path opacity="0.5" d="M5.75337 77.3591H5.46873C2.89075 77.3591 0.78125 75.2504 0.78125 72.6716V75.7661C0.78125 78.406 2.82824 80.4536 5.46873 80.4536C5.80671 80.4536 7.49208 80.4536 10.1562 80.4536C8.08187 80.4536 6.39044 79.1808 5.75337 77.3591Z" fill="#3A2C6D"/>
</g>
<g opacity="0.1">
<path opacity="0.1" d="M94.2471 77.3591H94.531C97.1099 77.3591 99.2185 75.2504 99.2185 72.6716V75.7661C99.2185 78.406 97.1711 80.4536 94.531 80.4536C94.1922 80.4536 92.508 80.4536 89.8435 80.4536C91.9188 80.4536 93.6097 79.1808 94.2471 77.3591Z" fill="black"/>
</g>
<path d="M99.2188 66.3909V72.6714C99.2188 75.2501 97.1102 77.3589 94.5313 77.3589H50V74.2034C51.297 74.2034 52.3435 73.1567 52.3435 71.8597C52.3435 70.5627 51.297 69.5159 50 69.5159V66.3909H99.2188Z" fill="#F5F7FA"/>
<path d="M50 74.2044V77.3598H5.46873C2.89075 77.3598 0.78125 75.2511 0.78125 72.6724V72.6419V66.3919H50V69.5169C48.703 69.5169 47.6563 70.5636 47.6563 71.8606C47.6563 73.1576 48.703 74.2044 50 74.2044Z" fill="#F5F7FA"/>
<path d="M5.46873 72.6716V72.6411V66.3911H0.78125V72.6411V72.6716C0.78125 75.2503 2.89075 77.359 5.46873 77.359H10.1562C7.57824 77.359 5.46873 75.2503 5.46873 72.6716Z" fill="#3A2C6D"/>
<path d="M99.2188 10.1715V66.391H50H0.78125V10.1715C0.78125 7.59449 2.89075 5.48401 5.46873 5.48401H94.5311C97.1102 5.48401 99.2188 7.59449 99.2188 10.1715ZM94.5311 61.7035V13.266V10.141H91.4061H88.2811H83.5936H80.4686H77.3436H74.2187H71.0937H36.7188H30.4688H24.2189H17.9689H11.7187H5.46873V13.266V61.7035H94.5311Z" fill="#656D78"/>
<g opacity="0.2">
<path opacity="0.2" d="M5.46873 13.266V10.1715V10.141H5.47186C5.48944 7.57769 7.58898 5.48401 10.1564 5.48401H5.46873C2.89075 5.48401 0.78125 7.59449 0.78125 10.1715V66.391H5.46873V61.7035V13.266Z" fill="#3A2C6D"/>
</g>
<g opacity="0.3">
<path opacity="0.3" d="M94.5312 13.266V10.1715V10.141H94.5281C94.5097 7.57769 92.4103 5.48401 89.8435 5.48401H94.531C97.1099 5.48401 99.2185 7.59449 99.2185 10.1715V66.391H94.531V61.7035V13.266H94.5312Z" fill="black"/>
</g>
<g opacity="0.1">
<path opacity="0.1" d="M60.8351 83.5786L60.1406 80.4536C53.4851 80.4536 46.5154 80.4536 39.8589 80.4536L39.1646 83.5786H60.8351Z" fill="black"/>
</g>
<path d="M99.2188 67.1722H0.781247C0.3495 67.1722 0 66.8227 0 66.391C0 65.9592 0.3495 65.6097 0.781247 65.6097H99.2186C99.6505 65.6097 100 65.9592 100 66.391C100 66.8227 99.6505 67.1722 99.2188 67.1722Z" fill="#3A2C6D"/>
<path d="M50 74.9849C48.2765 74.9849 46.875 73.5826 46.875 71.8599C46.875 70.1357 48.2765 68.7349 50 68.7349C51.7242 68.7349 53.125 70.1357 53.125 71.8599C53.125 73.5826 51.7242 74.9849 50 74.9849ZM50 70.2972C49.1386 70.2972 48.4375 70.9976 48.4375 71.8597C48.4375 72.7203 49.1386 73.4222 50 73.4222C50.8611 73.4222 51.5625 72.7203 51.5625 71.8597C51.5625 70.9976 50.8611 70.2972 50 70.2972Z" fill="#3A2C6D"/>
<path d="M36.7349 95.2973C36.6785 95.2973 36.622 95.2913 36.5648 95.2789C36.1436 95.1844 35.8781 94.7677 35.9713 94.3467L39.0963 80.2842C39.19 79.8632 39.6128 79.6022 40.0285 79.6907C40.4497 79.7839 40.7152 80.2018 40.6222 80.6228L37.497 94.6852C37.4162 95.0486 37.0926 95.2973 36.7349 95.2973Z" fill="#3A2C6D"/>
<path d="M63.2657 95.2973C62.9074 95.2973 62.5839 95.0486 62.503 94.6852L59.378 80.6228C59.2848 80.2018 59.5505 79.7837 59.9717 79.6907C60.3909 79.6007 60.8108 79.8632 60.9038 80.2842L64.0288 94.3467C64.1219 94.7677 63.8562 95.1844 63.4351 95.2789C63.3786 95.2912 63.3208 95.2973 63.2657 95.2973Z" fill="#3A2C6D"/>
<path d="M65.6249 95.2973H34.375C33.9431 95.2973 33.5938 94.9478 33.5938 94.5161C33.5938 94.0841 33.9431 93.7348 34.375 93.7348H65.6249C66.0568 93.7348 66.4059 94.0841 66.4059 94.5161C66.4061 94.9478 66.0568 95.2973 65.6249 95.2973Z" fill="#3A2C6D"/>
<path d="M94.5311 62.4847H5.46875C5.037 62.4847 4.6875 62.1352 4.6875 61.7035V10.141C4.6875 9.70924 5.037 9.35974 5.46875 9.35974H94.5311C94.963 9.35974 95.3125 9.70924 95.3125 10.141V61.7037C95.3125 62.1352 94.963 62.4847 94.5311 62.4847ZM6.24999 60.9222H93.75V10.9222H6.24999V60.9222Z" fill="#3A2C6D"/>
<path d="M94.5311 14.0472H5.46875C5.037 14.0472 4.6875 13.6979 4.6875 13.266C4.6875 12.8342 5.037 12.4847 5.46875 12.4847H94.5311C94.963 12.4847 95.3125 12.8342 95.3125 13.266C95.3125 13.6979 94.963 14.0472 94.5311 14.0472Z" fill="#3A2C6D"/>
<path d="M11.7187 14.0472C11.287 14.0472 10.9375 13.6979 10.9375 13.266V10.141C10.9375 9.70924 11.287 9.35974 11.7187 9.35974C12.1505 9.35974 12.5 9.70924 12.5 10.141V13.266C12.5 13.6979 12.1507 14.0472 11.7187 14.0472Z" fill="#3A2C6D"/>
<path d="M17.969 14.0472C17.5372 14.0472 17.1877 13.6979 17.1877 13.266V10.141C17.1877 9.70924 17.5372 9.35974 17.969 9.35974C18.4007 9.35974 18.7502 9.70924 18.7502 10.141V13.266C18.7502 13.6979 18.4005 14.0472 17.969 14.0472Z" fill="#3A2C6D"/>
<path d="M24.2187 14.0472C23.787 14.0472 23.4375 13.6979 23.4375 13.266V10.141C23.4375 9.70924 23.787 9.35974 24.2187 9.35974C24.6505 9.35974 25 9.70924 25 10.141V13.266C25 13.6979 24.6505 14.0472 24.2187 14.0472Z" fill="#3A2C6D"/>
<path d="M30.469 14.0472C30.037 14.0472 29.6877 13.6979 29.6877 13.266V10.141C29.6877 9.70924 30.037 9.35974 30.469 9.35974C30.9007 9.35974 31.2502 9.70924 31.2502 10.141V13.266C31.2502 13.6979 30.9007 14.0472 30.469 14.0472Z" fill="#3A2C6D"/>
<path d="M36.7187 14.0472C36.2868 14.0472 35.9375 13.6979 35.9375 13.266V10.141C35.9375 9.70924 36.2868 9.35974 36.7187 9.35974C37.1505 9.35974 37.5 9.70924 37.5 10.141V13.266C37.5 13.6979 37.1505 14.0472 36.7187 14.0472Z" fill="#3A2C6D"/>
<path d="M91.4061 14.0472C90.9745 14.0472 90.625 13.6979 90.625 13.266V10.141C90.625 9.70924 90.9745 9.35974 91.4061 9.35974C91.838 9.35974 92.1875 9.70924 92.1875 10.141V13.266C92.1875 13.6979 91.838 14.0472 91.4061 14.0472Z" fill="#3A2C6D"/>
<path d="M88.281 14.0472C87.8495 14.0472 87.5 13.6979 87.5 13.266V10.141C87.5 9.70924 87.8495 9.35974 88.281 9.35974C88.713 9.35974 89.0625 9.70924 89.0625 10.141V13.266C89.0625 13.6979 88.713 14.0472 88.281 14.0472Z" fill="#3A2C6D"/>
<path d="M83.5936 14.0472C83.162 14.0472 82.8125 13.6979 82.8125 13.266V10.141C82.8125 9.70924 83.162 9.35974 83.5936 9.35974C84.0255 9.35974 84.375 9.70924 84.375 10.141V13.266C84.375 13.6979 84.0255 14.0472 83.5936 14.0472Z" fill="#3A2C6D"/>
<path d="M80.4686 14.0472C80.037 14.0472 79.6875 13.6979 79.6875 13.266V10.141C79.6875 9.70924 80.037 9.35974 80.4686 9.35974C80.9005 9.35974 81.25 9.70924 81.25 10.141V13.266C81.25 13.6979 80.9005 14.0472 80.4686 14.0472Z" fill="#3A2C6D"/>
<path d="M77.3436 14.0472C76.912 14.0472 76.5625 13.6979 76.5625 13.266V10.141C76.5625 9.70924 76.912 9.35974 77.3436 9.35974C77.7755 9.35974 78.125 9.70924 78.125 10.141V13.266C78.125 13.6979 77.7755 14.0472 77.3436 14.0472Z" fill="#3A2C6D"/>
<path d="M74.2186 14.0472C73.787 14.0472 73.4375 13.6979 73.4375 13.266V10.141C73.4375 9.70924 73.787 9.35974 74.2186 9.35974C74.6505 9.35974 75 9.70924 75 10.141V13.266C75 13.6979 74.6505 14.0472 74.2186 14.0472Z" fill="#3A2C6D"/>
<path d="M71.0936 14.0472C70.662 14.0472 70.3125 13.6979 70.3125 13.266V10.141C70.3125 9.70924 70.662 9.35974 71.0936 9.35974C71.5255 9.35974 71.875 9.70924 71.875 10.141V13.266C71.875 13.6979 71.5255 14.0472 71.0936 14.0472Z" fill="#3A2C6D"/>
<path d="M37.5002 54.6723C37.0683 54.6723 36.719 54.3228 36.719 53.891V48.4223H30.469V53.891C30.469 54.3228 30.1195 54.6723 29.6877 54.6723C29.2558 54.6723 28.9065 54.3228 28.9065 53.891V47.641C28.9065 47.2093 29.2558 46.8598 29.6877 46.8598H37.5002C37.9319 46.8598 38.2814 47.2093 38.2814 47.641V53.891C38.2814 54.3228 37.9319 54.6723 37.5002 54.6723Z" fill="#3A2C6D"/>
<path d="M59.375 56.2348C59.088 56.2348 58.8133 56.0762 58.676 55.8029L55.4686 49.3882L52.2615 55.8029C52.0677 56.1891 51.5991 56.3446 51.213 56.1524C50.8268 55.9586 50.6709 55.4901 50.8635 55.1043L54.77 47.2916C55.0355 46.7622 55.9021 46.7622 56.1676 47.2916L60.0736 55.1043C60.2659 55.4903 60.1103 55.9586 59.7245 56.1524C59.6131 56.2073 59.4942 56.2348 59.375 56.2348Z" fill="#3A2C6D"/>
<path d="M69.0643 54.6723C69.0123 54.6723 68.9606 54.6678 68.9086 54.657C68.4874 54.5715 68.2127 54.1612 68.2965 53.7369L69.3603 48.4223H63.4518L64.5155 53.7369C64.5995 54.1612 64.3247 54.5715 63.9035 54.657C63.476 54.744 63.0675 54.4662 62.9835 54.0436L61.7336 47.7936C61.6879 47.5647 61.7473 47.3265 61.8954 47.1452C62.045 46.9651 62.2648 46.8598 62.4998 46.8598H70.3123C70.5473 46.8598 70.767 46.9651 70.9163 47.1452C71.0644 47.3267 71.1238 47.5647 71.0781 47.7936L69.8285 54.0436C69.7537 54.416 69.4271 54.6723 69.0643 54.6723Z" fill="#3A2C6D"/>
<path d="M47.2969 55.0935C47.097 55.0935 46.8972 55.0171 46.7446 54.8645C46.4394 54.5594 46.4394 54.0649 46.7446 53.7597C46.8606 53.6439 46.9497 53.5265 47.039 53.412C47.956 52.1805 47.8332 50.4228 46.7446 49.3333C45.5246 48.1277 43.538 48.1246 42.315 49.3364C41.2294 50.423 41.1065 52.1806 42.0327 53.4243C42.1128 53.5265 42.2021 53.6441 42.3179 53.7599C42.6231 54.0651 42.6231 54.5596 42.3179 54.8647C42.0128 55.1699 41.5183 55.1699 41.2132 54.8647C41.0483 54.6998 40.9178 54.5349 40.789 54.3702C39.3936 52.4965 39.5798 49.8613 41.2132 48.2285C43.0443 46.4159 46.0198 46.4173 47.846 48.2254C49.4826 49.8611 49.6688 52.4963 48.2825 54.3579C48.1444 54.5349 48.0139 54.6998 47.849 54.8647C47.6966 55.0173 47.4967 55.0935 47.2969 55.0935Z" fill="#3A2C6D"/>
<path d="M75.0308 59.3598C75.0216 59.3582 75.0095 59.3582 75.0003 59.3598H25.0003C24.7117 59.3598 24.447 59.2011 24.3114 58.9462C24.1757 58.693 24.1909 58.3847 24.3503 58.1452L27.4753 53.4577C27.6202 53.2395 27.8644 53.1098 28.1255 53.1098H29.6879C30.1197 53.1098 30.4692 53.4593 30.4692 53.891V54.6723H36.7192V53.891C36.7192 53.4593 37.0685 53.1098 37.5004 53.1098H41.4067C41.6468 53.1098 41.8888 53.2196 42.0369 53.4089C42.1537 53.5585 42.2451 53.6758 42.3489 53.7934C43.4689 54.8966 45.5608 54.9317 46.748 53.7566C46.8181 53.6758 46.9098 53.5583 47.0004 53.4409C47.1483 53.2516 47.4009 53.1098 47.6414 53.1098H51.5629C51.9948 53.1098 52.3439 53.4593 52.3439 53.891V54.6723H58.5939V53.891C58.5939 53.4593 58.9434 53.1098 59.3753 53.1098H63.75C64.1224 53.1098 64.443 53.3724 64.5163 53.7369L64.704 54.6723H68.1095L68.2973 53.7369C68.3705 53.3724 68.6911 53.1098 69.0635 53.1098H71.8757C72.1367 53.1098 72.3809 53.2395 72.5255 53.4577L75.55 57.9926C75.7114 58.136 75.8122 58.3451 75.8122 58.5785C75.8118 59.0103 75.4627 59.3598 75.0308 59.3598ZM26.4596 57.7973H73.5415L71.457 54.6723H69.7023L69.5161 55.6061C69.4429 55.9722 69.1227 56.2348 68.7503 56.2348H64.0628C63.6905 56.2348 63.3699 55.9722 63.2966 55.6061L63.1108 54.6723H60.1564V55.4535C60.1564 55.8853 59.8073 56.2348 59.3753 56.2348H51.5629C51.1309 56.2348 50.7814 55.8853 50.7814 55.4535V54.6723H48.0182C47.9725 54.7272 47.9274 54.7792 47.8801 54.8325C46.0385 56.662 42.9912 56.6255 41.2168 54.8677C41.1535 54.7975 41.0978 54.7332 41.0466 54.6723H38.2819V55.4535C38.2819 55.8853 37.9324 56.2348 37.5006 56.2348H29.6881C29.2562 56.2348 28.9069 55.8853 28.9069 55.4535V54.6723H28.5437L26.4596 57.7973Z" fill="#3A2C6D"/>
<path d="M33.5937 35.9222H19.5312C19.0995 35.9222 18.75 35.5729 18.75 35.1409V25.766C18.75 25.3342 19.0995 24.9847 19.5312 24.9847C19.963 24.9847 20.3125 25.3342 20.3125 25.766V34.3597H32.8124V26.5472H27.3437C26.9118 26.5472 26.5625 26.1979 26.5625 25.766C26.5625 25.3342 26.9118 24.9847 27.3437 24.9847H33.5937C34.0254 24.9847 34.3749 25.3342 34.3749 25.766V35.1409C34.3749 35.5729 34.0254 35.9222 33.5937 35.9222Z" fill="#3A2C6D"/>
<path d="M27.3439 26.5472H19.5314C19.2604 26.5472 19.0096 26.4068 18.867 26.1766C18.7244 25.9461 18.7113 25.6577 18.8326 25.4167L20.3951 22.2917C20.5277 22.0262 20.7979 21.8597 21.0939 21.8597H27.3439C27.7756 21.8597 28.1251 22.2092 28.1251 22.641V25.766C28.1251 26.1979 27.7756 26.5472 27.3439 26.5472ZM20.7954 24.9847H26.5626V23.4222H21.5768L20.7954 24.9847Z" fill="#3A2C6D"/>
<path d="M32.0314 39.0474H21.094C20.6622 39.0474 20.3127 38.698 20.3127 38.2661C20.3127 37.8344 20.6622 37.4849 21.094 37.4849H32.0314C32.4632 37.4849 32.8127 37.8344 32.8127 38.2661C32.8127 38.6979 32.4632 39.0474 32.0314 39.0474Z" fill="#3A2C6D"/>
<path d="M57.031 35.9222H42.9687C42.5368 35.9222 42.1875 35.5729 42.1875 35.1409V25.766C42.1875 25.3342 42.5368 24.9847 42.9687 24.9847C43.4005 24.9847 43.75 25.3342 43.75 25.766V34.3597H56.2499V26.5472H50.781C50.3495 26.5472 50 26.1979 50 25.766C50 25.3342 50.3495 24.9847 50.781 24.9847H57.031C57.4629 24.9847 57.8124 25.3342 57.8124 25.766V35.1409C57.8124 35.5729 57.4629 35.9222 57.031 35.9222Z" fill="#3A2C6D"/>
<path d="M50.781 26.5472H42.9688C42.6978 26.5472 42.4468 26.4068 42.3041 26.1766C42.1615 25.9461 42.1486 25.6577 42.2698 25.4167L43.8323 22.2917C43.9649 22.0262 44.2351 21.8597 44.5313 21.8597H50.781C51.213 21.8597 51.5625 22.2092 51.5625 22.641V25.766C51.5625 26.1979 51.213 26.5472 50.781 26.5472ZM44.2329 24.9847H50V23.4222H45.0142L44.2329 24.9847Z" fill="#3A2C6D"/>
<path d="M55.4685 39.0474H44.5312C44.0993 39.0474 43.75 38.698 43.75 38.2661C43.75 37.8344 44.0993 37.4849 44.5312 37.4849H55.4685C55.9004 37.4849 56.2499 37.8344 56.2499 38.2661C56.2499 38.6979 55.9004 39.0474 55.4685 39.0474Z" fill="#3A2C6D"/>
<path d="M80.4687 35.9222H66.4063C65.9747 35.9222 65.6252 35.5729 65.6252 35.1409V25.766C65.6252 25.3342 65.9747 24.9847 66.4063 24.9847C66.8382 24.9847 67.1877 25.3342 67.1877 25.766V34.3597H79.6877V26.5472H74.2188C73.7872 26.5472 73.4377 26.1979 73.4377 25.766C73.4377 25.3342 73.7872 24.9847 74.2188 24.9847H80.4687C80.9007 24.9847 81.2502 25.3342 81.2502 25.766V35.1409C81.2502 35.5729 80.9007 35.9222 80.4687 35.9222Z" fill="#3A2C6D"/>
<path d="M74.2186 26.5472H66.4062C66.1348 26.5472 65.8845 26.4068 65.7412 26.1766C65.5991 25.9461 65.5855 25.6577 65.7076 25.4167L67.27 22.2917C67.4029 22.0262 67.6729 21.8597 67.9687 21.8597H74.2186C74.6506 21.8597 75.0001 22.2092 75.0001 22.641V25.766C75.0001 26.1979 74.6506 26.5472 74.2186 26.5472ZM67.6698 24.9847H73.4374V23.4222H68.4508L67.6698 24.9847Z" fill="#3A2C6D"/>
<path d="M78.906 39.0474H67.9686C67.537 39.0474 67.1875 38.698 67.1875 38.2661C67.1875 37.8344 67.537 37.4849 67.9686 37.4849H78.906C79.338 37.4849 79.6875 37.8344 79.6875 38.2661C79.6875 38.6979 79.338 39.0474 78.906 39.0474Z" fill="#3A2C6D"/>
<path d="M94.5311 78.1404H5.46873C2.45353 78.1404 0 75.6866 0 72.6716C0 72.6671 0 72.6609 0 72.6564C0 72.6519 0 72.6456 0 72.6412V10.1715C0 7.15629 2.45373 4.70276 5.46873 4.70276H94.5311C97.5463 4.70276 100 7.15649 100 10.1715V72.6716C100 75.6866 97.5463 78.1404 94.5311 78.1404ZM1.56249 72.6564C1.56249 72.6609 1.56249 72.6671 1.56249 72.6716C1.56249 74.8261 3.31507 76.5779 5.46873 76.5779H94.5311C96.6857 76.5779 98.4375 74.8261 98.4375 72.6716V10.1715C98.4375 8.01842 96.6857 6.26525 94.5311 6.26525H5.46873C3.31507 6.26525 1.56249 8.01861 1.56249 10.1715V72.6412C1.56249 72.6456 1.56249 72.6517 1.56249 72.6564Z" fill="#3A2C6D"/>
<path d="M94.5311 81.2348H5.46873C2.40254 81.2348 0 78.8315 0 75.7661V72.6716C0 72.2399 0.3495 71.8751 0.781247 71.8751C1.21299 71.8751 1.56249 72.2094 1.56249 72.6411V75.7661C1.56249 77.9924 3.24181 79.6723 5.46873 79.6723H94.5311C96.759 79.6723 98.4375 77.9922 98.4375 75.7661V72.6716C98.4375 72.2399 98.787 71.8904 99.2186 71.8904C99.6505 71.8904 100 72.2399 100 72.6716V75.7661C100 78.8315 97.5982 81.2348 94.5311 81.2348Z" fill="#3A2C6D"/>
<path d="M8.64043 12.4847C8.20927 12.4847 7.85156 12.1354 7.85156 11.7035C7.85156 11.2717 8.19344 10.9222 8.62519 10.9222H8.64043C9.07218 10.9222 9.42168 11.2717 9.42168 11.7035C9.42168 12.1354 9.07198 12.4847 8.64043 12.4847Z" fill="#3A2C6D"/>
</svg>
