<svg width="293" height="370" viewBox="0 0 293 370" fill="none" xmlns="http://www.w3.org/2000/svg">
<g clip-path="url(#clip0)">
<path opacity="0.4" d="M15.7795 353.572L0 344.529L23.6102 330.995L39.3824 340.03L15.7795 353.572Z" fill="#D6D8E5"/>
<path d="M16.1046 335.346L3.03625 327.79L16.1046 320.235L29.1656 327.79L16.1046 335.346Z" fill="#D6D8E5"/>
<path d="M16.1046 350.457L3.03625 342.901V327.79L16.1046 335.346V350.457Z" fill="#B1B6C4"/>
<path d="M29.1729 342.901L16.1046 350.457V335.346L29.1729 327.79V342.901Z" fill="#C4C7D6"/>
<path d="M33.6645 338.18C34.7946 338.495 36.0033 338.349 37.0258 337.773C37.8384 337.773 42.2413 335.916 42.8397 337.499C43.3642 338.883 41.4582 340.171 40.4388 340.415C38.2225 340.955 36.5678 342.065 35.6739 342.257C35.3334 342.38 34.9683 342.417 34.6103 342.365C34.2523 342.313 33.9124 342.175 33.6202 341.961C32.9849 341.295 33.044 338.972 33.6645 338.18Z" fill="#38226D"/>
<path d="M35.6739 341.836C36.5678 341.643 38.2152 340.533 40.4388 339.993C41.2884 339.786 42.7585 338.853 42.9062 337.736C43.1057 339.016 41.3844 340.148 40.4388 340.378C38.2226 340.918 36.5678 342.028 35.6739 342.22C35.3335 342.343 34.9683 342.38 34.6103 342.328C34.2524 342.276 33.9124 342.138 33.6202 341.924C33.4794 341.775 33.38 341.591 33.3321 341.392C33.6608 341.644 34.0438 341.815 34.4504 341.892C34.857 341.969 35.276 341.95 35.6739 341.836Z" fill="#9C73FF"/>
<path d="M25.7304 333.91C26.8604 334.225 28.0692 334.079 29.0917 333.503C29.9043 333.503 34.2629 331.646 34.8982 333.229C35.4227 334.613 33.5167 335.901 32.5047 336.145C30.2884 336.685 28.6337 337.795 27.7398 337.988C27.3993 338.11 27.0342 338.147 26.6762 338.095C26.3182 338.044 25.9783 337.905 25.6861 337.692C25.0508 337.063 25.1172 334.739 25.7304 333.91Z" fill="#38226D"/>
<path d="M27.7398 337.603C28.6337 337.41 30.2811 336.3 32.5047 335.76C33.3543 335.553 34.8244 334.621 34.9721 333.503C35.1716 334.783 33.4503 335.916 32.5047 336.145C30.2885 336.685 28.6337 337.795 27.7398 337.988C27.3994 338.11 27.0342 338.147 26.6763 338.095C26.3183 338.044 25.9783 337.905 25.6861 337.692C25.5469 337.544 25.4478 337.363 25.398 337.166C25.7279 337.416 26.1111 337.585 26.5175 337.661C26.924 337.737 27.3424 337.717 27.7398 337.603Z" fill="#9C73FF"/>
<path d="M13.3712 328.427C16.8064 329.907 20.0199 330.173 22.6868 328.752L25.4201 327.169C25.5827 330.706 25.7378 334.103 25.7378 334.103C25.7378 334.103 27.8358 335.694 29.4315 334.273C29.4315 334.273 29.7713 329.315 30.1185 324.431L32.9849 322.773C32.9158 323.034 32.8786 323.303 32.874 323.572C32.874 324.497 33.5389 338.284 33.5389 338.284C33.5389 338.284 35.6517 339.542 37.2843 338.128C37.2843 338.128 38.3851 322.152 38.6362 319.628C38.917 316.757 35.7404 315.344 33.7236 316.076L30.6504 317.223L30.7982 315.447C31.0863 312.576 27.9023 311.163 25.8929 311.895C24.0608 312.569 11.6795 317.216 11.6795 317.216C11.7566 318.41 11.9021 319.598 12.1154 320.775L7.22491 320.361C6.96635 324.941 9.94348 326.917 13.3712 328.427ZM21.9111 320.487L25.1837 318.6C25.1292 318.831 25.0946 319.066 25.0803 319.303L21.9111 320.487Z" fill="#8C50FF"/>
<path d="M4.58026 306.36C4.58026 306.36 4.97918 312.45 5.77702 313.331C6.57487 314.211 9.27866 314.811 9.27866 314.811L11.3545 318.2C11.3545 318.2 9.45596 307.337 9.04226 307.1C8.62857 306.863 4.58026 306.36 4.58026 306.36Z" fill="#FFCEA9"/>
<path d="M8.57683 299.589C8.07343 299.354 7.50158 299.31 6.96847 299.467C6.43537 299.623 5.9776 299.969 5.68096 300.44C4.94222 301.705 4.12221 306.064 4.04834 306.804C4.35539 307.219 4.76214 307.55 5.23091 307.766C5.69967 307.982 6.21528 308.077 6.72997 308.04L8.57683 299.589Z" fill="#EDEDED"/>
<path d="M9.30816 299.7C10.3572 299.752 11.1402 300.018 11.2732 299.7C11.3858 299.158 11.4648 298.609 11.5096 298.057C11.3914 297.746 11.288 297.421 11.288 297.421C9.96564 296.607 9.55194 295.201 9.37465 293.514C9.07915 290.665 10.6157 288.178 13.4525 287.882C16.1267 287.601 18.0918 289.481 18.6237 292.063C18.9044 293.336 19.4659 295.763 18.705 297.843C18.2839 299.012 17.7372 299.944 17.2275 300.122C16.6982 300.111 16.1702 300.066 15.6466 299.989C15.6466 299.989 15.5062 300.78 15.4102 301.284C15.3141 301.787 15.3437 302.061 16.3558 302.682C17.3678 303.304 14.834 304.584 13.1792 304.458C11.5244 304.332 9.66276 303.333 9.15302 302.238C8.53987 301.039 8.58419 299.633 9.30816 299.7Z" fill="#FFCEA9"/>
<path d="M35.9472 318.311C35.9466 318.461 35.9067 318.608 35.8316 318.738C35.7564 318.868 35.6485 318.976 35.5187 319.051L27.5034 323.683C27.3734 323.76 27.2255 323.8 27.0749 323.8C26.9243 323.8 26.7765 323.76 26.6464 323.683L15.4176 317.186C15.2868 317.112 15.1781 317.005 15.1027 316.875C15.0274 316.745 14.9882 316.597 14.9891 316.446V316.387L35.9472 318.311Z" fill="#E5E5E5"/>
<path d="M35.5187 319.051L27.5034 323.683C27.3743 323.762 27.2259 323.803 27.0749 323.802V318.311H35.9398C35.94 318.46 35.9012 318.607 35.8273 318.737C35.7535 318.867 35.6471 318.975 35.5187 319.051Z" fill="#E5E5E5"/>
<path d="M27.3778 323.262C27.2873 323.316 27.1839 323.344 27.0786 323.344C26.9732 323.344 26.8699 323.316 26.7794 323.262L15.0999 316.513C14.9521 316.424 14.9521 316.283 15.0999 316.202L23.6988 311.222L35.9472 318.311L27.3778 323.262Z" fill="#F4F4F4"/>
<path d="M19.8943 318.311L19.9534 318.341L23.6989 320.509L25.7526 319.317L25.8117 319.288L22.0072 317.09L19.8943 318.311Z" fill="#BFBFBF"/>
<path d="M19.9539 318.341L23.6993 320.509L25.753 319.318L22.0076 317.157L19.9539 318.341Z" fill="#E5E5E5"/>
<path d="M32.7706 318.659L33.3099 318.97C33.3359 318.984 33.3651 318.991 33.3948 318.991C33.4245 318.991 33.4537 318.984 33.4798 318.97L33.9969 318.674C34.0486 318.674 34.056 318.6 33.9969 318.577L33.4576 318.259C33.431 318.247 33.402 318.24 33.3727 318.24C33.3433 318.24 33.3143 318.247 33.2877 318.259L32.7706 318.563C32.7336 318.592 32.7263 318.637 32.7706 318.659Z" fill="#3A2C6D"/>
<path d="M32.0097 318.2L32.549 318.511C32.5751 318.525 32.6043 318.533 32.634 318.533C32.6636 318.533 32.6929 318.525 32.7189 318.511L33.236 318.215C33.2877 318.215 33.2877 318.141 33.236 318.119L32.6967 317.808C32.6707 317.794 32.6415 317.786 32.6118 317.786C32.5821 317.786 32.5529 317.794 32.5268 317.808L32.0097 318.104C31.9728 318.148 31.9654 318.2 32.0097 318.2Z" fill="#3A2C6D"/>
<path d="M31.2414 317.778L31.7807 318.089C31.8085 318.102 31.8388 318.108 31.8693 318.108C31.8999 318.108 31.9302 318.102 31.958 318.089L32.4677 317.793C32.5194 317.793 32.5268 317.719 32.4677 317.689L31.9284 317.379C31.9024 317.364 31.8732 317.357 31.8435 317.357C31.8138 317.357 31.7846 317.364 31.7585 317.379L31.2414 317.675C31.2045 317.704 31.1971 317.749 31.2414 317.778Z" fill="#3A2C6D"/>
<path d="M30.4805 317.334L31.0198 317.645C31.0463 317.658 31.0754 317.664 31.1047 317.664C31.1341 317.664 31.1631 317.658 31.1897 317.645L31.7068 317.349C31.7585 317.349 31.7659 317.275 31.7068 317.245L31.1675 316.935C31.1397 316.922 31.1094 316.915 31.0789 316.915C31.0483 316.915 31.0181 316.922 30.9902 316.935L30.4805 317.231C30.4435 317.26 30.4362 317.305 30.4805 317.334Z" fill="#3A2C6D"/>
<path d="M29.7122 316.89L30.2589 317.201C30.285 317.215 30.3142 317.223 30.3439 317.223C30.3735 317.223 30.4028 317.215 30.4288 317.201L30.9385 316.905C30.9903 316.905 30.9976 316.831 30.9385 316.809L30.3993 316.491C30.3727 316.478 30.3437 316.472 30.3143 316.472C30.2849 316.472 30.2559 316.478 30.2294 316.491L29.7122 316.794C29.6753 316.824 29.6679 316.868 29.7122 316.89Z" fill="#3A2C6D"/>
<path d="M28.9513 316.446L29.4906 316.764C29.5172 316.777 29.5462 316.783 29.5756 316.783C29.6049 316.783 29.6339 316.777 29.6605 316.764L30.1776 316.461C30.2293 316.461 30.2367 316.387 30.1776 316.365L29.6383 316.054C29.611 316.04 29.5806 316.032 29.5497 316.032C29.5188 316.032 29.4884 316.04 29.461 316.054L28.9513 316.35C28.9144 316.38 28.907 316.424 28.9513 316.446Z" fill="#3A2C6D"/>
<path d="M28.1904 315.98L28.7297 316.291C28.7563 316.303 28.7853 316.31 28.8146 316.31C28.844 316.31 28.873 316.303 28.8996 316.291L29.4167 315.995C29.4684 315.995 29.4684 315.921 29.4167 315.891L28.8774 315.58C28.8509 315.568 28.8219 315.561 28.7925 315.561C28.7631 315.561 28.7341 315.568 28.7075 315.58L28.1904 315.876C28.1461 315.936 28.1461 315.98 28.1904 315.98Z" fill="#3A2C6D"/>
<path d="M27.4221 315.566L27.9614 315.876C27.9875 315.891 28.0167 315.898 28.0464 315.898C28.0761 315.898 28.1053 315.891 28.1313 315.876L28.6484 315.58C28.7002 315.58 28.7075 315.506 28.6484 315.484L28.1092 315.166C28.0826 315.153 28.0536 315.147 28.0242 315.147C27.9948 315.147 27.9658 315.153 27.9393 315.166L27.4221 315.469C27.3852 315.499 27.3778 315.543 27.4221 315.566Z" fill="#3A2C6D"/>
<path d="M26.6612 315.122L27.2005 315.432C27.2265 315.447 27.2558 315.454 27.2854 315.454C27.3151 315.454 27.3443 315.447 27.3704 315.432L27.8875 315.136C27.9392 315.136 27.9392 315.062 27.8875 315.04L27.3335 314.722C27.3074 314.708 27.2782 314.7 27.2485 314.7C27.2188 314.7 27.1896 314.708 27.1635 314.722L26.6464 315.018C26.5947 315.055 26.5947 315.099 26.6612 315.122Z" fill="#3A2C6D"/>
<path d="M25.8929 314.685L26.4322 314.996C26.46 315.008 26.4903 315.015 26.5208 315.015C26.5514 315.015 26.5816 315.008 26.6095 314.996L27.1192 314.7C27.1709 314.7 27.1783 314.626 27.1192 314.596L26.5947 314.278C26.5687 314.264 26.5394 314.256 26.5098 314.256C26.4801 314.256 26.4509 314.264 26.4248 314.278L25.9077 314.574C25.856 314.611 25.856 314.655 25.8929 314.685Z" fill="#3A2C6D"/>
<path d="M25.1172 314.241L25.6565 314.552C25.6831 314.564 25.7121 314.571 25.7415 314.571C25.7709 314.571 25.7999 314.564 25.8264 314.552L26.3436 314.256C26.3953 314.256 26.4027 314.182 26.3436 314.152L25.856 313.834C25.8282 313.821 25.7979 313.815 25.7673 313.815C25.7368 313.815 25.7065 313.821 25.6787 313.834L25.169 314.13C25.1172 314.167 25.1172 314.211 25.1172 314.241Z" fill="#3A2C6D"/>
<path d="M24.3785 313.797L24.9252 314.108C24.9512 314.122 24.9804 314.13 25.0101 314.13C25.0398 314.13 25.069 314.122 25.0951 314.108L25.6122 313.812C25.6565 313.812 25.6639 313.738 25.6122 313.716L25.0729 313.397C25.0463 313.385 25.0173 313.378 24.9879 313.378C24.9586 313.378 24.9296 313.385 24.903 313.397L24.3859 313.701C24.3268 313.76 24.3268 313.76 24.3785 313.797Z" fill="#3A2C6D"/>
<path d="M23.6398 313.353L24.179 313.671C24.2056 313.684 24.2346 313.69 24.264 313.69C24.2934 313.69 24.3224 313.684 24.3489 313.671L24.8661 313.368C24.9178 313.368 24.9252 313.294 24.8661 313.272L24.3268 312.961C24.2994 312.947 24.269 312.939 24.2381 312.939C24.2073 312.939 24.1769 312.947 24.1495 312.961L23.6398 313.257C23.5659 313.286 23.5585 313.331 23.6398 313.353Z" fill="#3A2C6D"/>
<path d="M22.4726 312.702L23.3812 313.227C23.4078 313.24 23.4368 313.246 23.4662 313.246C23.4956 313.246 23.5246 313.24 23.5511 313.227L24.0683 312.931C24.12 312.931 24.12 312.857 24.0683 312.828L23.167 312.28C23.1404 312.267 23.1114 312.261 23.082 312.261C23.0527 312.261 23.0237 312.267 22.9971 312.28L22.48 312.583C22.4722 312.583 22.4644 312.584 22.4571 312.586C22.4497 312.589 22.4429 312.593 22.4371 312.598C22.4313 312.603 22.4265 312.61 22.4231 312.617C22.4197 312.624 22.4177 312.631 22.4172 312.639C22.4167 312.647 22.4177 312.654 22.4203 312.662C22.4228 312.669 22.4267 312.676 22.4319 312.682C22.437 312.688 22.4433 312.692 22.4502 312.696C22.4572 312.699 22.4648 312.701 22.4726 312.702Z" fill="#3A2C6D"/>
<path d="M30.8942 318.429L31.4409 318.74C31.4669 318.754 31.4961 318.762 31.5258 318.762C31.5555 318.762 31.5847 318.754 31.6108 318.74L32.1279 318.444C32.1722 318.444 32.1796 318.37 32.1279 318.348L31.5886 318.037C31.5626 318.023 31.5334 318.015 31.5037 318.015C31.474 318.015 31.4448 318.023 31.4187 318.037L30.9016 318.333C30.8573 318.363 30.8573 318.407 30.8942 318.429Z" fill="#3A2C6D"/>
<path d="M30.1333 317.985L30.6726 318.304C30.6992 318.316 30.7282 318.323 30.7576 318.323C30.7869 318.323 30.8159 318.316 30.8425 318.304L31.3596 318C31.4113 318 31.4187 317.926 31.3596 317.904L30.8204 317.593C30.793 317.579 30.7626 317.572 30.7317 317.572C30.7008 317.572 30.6704 317.579 30.6431 317.593L30.1333 317.889C30.0964 317.919 30.089 317.963 30.1333 317.985Z" fill="#3A2C6D"/>
<path d="M29.365 317.549L29.9043 317.86C29.9321 317.872 29.9624 317.879 29.9929 317.879C30.0235 317.879 30.0537 317.872 30.0816 317.86L30.5913 317.564C30.643 317.564 30.6504 317.49 30.5913 317.46L30.052 317.149C30.0255 317.137 29.9965 317.13 29.9671 317.13C29.9377 317.13 29.9087 317.137 29.8821 317.149L29.365 317.445C29.3281 317.46 29.3207 317.519 29.365 317.549Z" fill="#3A2C6D"/>
<path d="M28.6041 317.105L29.1434 317.416C29.17 317.428 29.199 317.435 29.2283 317.435C29.2577 317.435 29.2867 317.428 29.3133 317.416L29.8304 317.12C29.8821 317.12 29.8821 317.046 29.8304 317.016L29.2911 316.705C29.2646 316.693 29.2356 316.686 29.2062 316.686C29.1768 316.686 29.1478 316.693 29.1212 316.705L28.6041 317.001C28.5598 317.031 28.5598 317.075 28.6041 317.105Z" fill="#3A2C6D"/>
<path d="M27.8432 316.661L28.3825 316.979C28.4091 316.992 28.4381 316.998 28.4675 316.998C28.4968 316.998 28.5258 316.992 28.5524 316.979L29.0695 316.676C29.1212 316.676 29.1286 316.602 29.0695 316.579L28.5302 316.269C28.5029 316.254 28.4725 316.247 28.4416 316.247C28.4107 316.247 28.3803 316.254 28.353 316.269L27.8432 316.565C27.8063 316.594 27.7989 316.639 27.8432 316.661Z" fill="#3A2C6D"/>
<path d="M27.0749 316.224L27.6142 316.535C27.642 316.548 27.6723 316.554 27.7028 316.554C27.7334 316.554 27.7636 316.548 27.7915 316.535L28.3012 316.239C28.3529 316.239 28.3603 316.165 28.3012 316.135L27.7619 315.825C27.7354 315.812 27.7064 315.806 27.677 315.806C27.6476 315.806 27.6186 315.812 27.592 315.825L27.0749 316.121C27.038 316.15 27.0306 316.195 27.0749 316.224Z" fill="#3A2C6D"/>
<path d="M26.314 315.78L26.8533 316.091C26.8799 316.104 26.9089 316.11 26.9382 316.11C26.9676 316.11 26.9966 316.104 27.0232 316.091L27.5403 315.795C27.592 315.795 27.592 315.721 27.5403 315.691L27.001 315.381C26.9745 315.368 26.9455 315.362 26.9161 315.362C26.8867 315.362 26.8577 315.368 26.8311 315.381L26.314 315.677C26.2697 315.706 26.2697 315.751 26.314 315.78Z" fill="#3A2C6D"/>
<path d="M25.5457 315.336L26.085 315.647C26.1111 315.661 26.1403 315.669 26.17 315.669C26.1997 315.669 26.2289 315.661 26.2549 315.647L26.772 315.351C26.8238 315.351 26.8311 315.277 26.772 315.255L26.2328 314.937C26.2049 314.924 26.1747 314.917 26.1441 314.917C26.1135 314.917 26.0833 314.924 26.0555 314.937L25.5457 315.24C25.5088 315.24 25.5014 315.314 25.5457 315.336Z" fill="#3A2C6D"/>
<path d="M24.7775 314.892L25.3241 315.203C25.3502 315.217 25.3794 315.225 25.4091 315.225C25.4388 315.225 25.468 315.217 25.494 315.203L26.0112 314.907C26.0555 314.907 26.0629 314.833 26.0112 314.811L25.4719 314.5C25.4458 314.486 25.4166 314.478 25.3869 314.478C25.3572 314.478 25.328 314.486 25.302 314.5L24.7848 314.796C24.7405 314.826 24.7405 314.87 24.7775 314.892Z" fill="#3A2C6D"/>
<path d="M24.0165 314.448L24.5558 314.766C24.5824 314.779 24.6114 314.785 24.6407 314.785C24.6701 314.785 24.6991 314.779 24.7257 314.766L25.2428 314.463C25.2945 314.463 25.3019 314.389 25.2428 314.367L24.7035 314.056C24.6761 314.042 24.6457 314.034 24.6149 314.034C24.584 314.034 24.5536 314.042 24.5262 314.056L24.0165 314.352C23.9796 314.382 23.9722 314.426 24.0165 314.448Z" fill="#3A2C6D"/>
<path d="M23.2482 314.012L23.7875 314.322C23.8154 314.335 23.8456 314.342 23.8762 314.342C23.9068 314.342 23.937 314.335 23.9648 314.322L24.4746 314.026C24.5263 314.026 24.5337 313.952 24.4746 313.923L23.9353 313.612C23.9087 313.599 23.8797 313.593 23.8503 313.593C23.821 313.593 23.7919 313.599 23.7654 313.612L23.2482 313.908C23.2113 313.938 23.2039 313.982 23.2482 314.012Z" fill="#3A2C6D"/>
<path d="M22.4873 313.568L23.0266 313.878C23.0532 313.891 23.0822 313.897 23.1116 313.897C23.141 313.897 23.17 313.891 23.1965 313.878L23.7137 313.582C23.7654 313.582 23.7654 313.508 23.7137 313.479L23.1744 313.168C23.1478 313.155 23.1188 313.149 23.0894 313.149C23.06 313.149 23.031 313.155 23.0045 313.168L22.4873 313.464C22.443 313.494 22.443 313.538 22.4873 313.568Z" fill="#3A2C6D"/>
<path d="M31.6625 318.873L32.5711 319.399C32.5977 319.411 32.6267 319.418 32.6561 319.418C32.6855 319.418 32.7145 319.411 32.7411 319.399L33.2582 319.103C33.3099 319.103 33.3173 319.029 33.2582 318.999L32.3495 318.474C32.3217 318.461 32.2915 318.455 32.2609 318.455C32.2303 318.455 32.2001 318.461 32.1722 318.474L31.6625 318.777C31.6256 318.807 31.6182 318.851 31.6625 318.873Z" fill="#3A2C6D"/>
<path d="M22.4208 312.724L22.9601 313.035C23.0044 313.035 23.0044 313.101 22.9601 313.131L22.4134 313.442C22.3901 313.456 22.3633 313.464 22.3359 313.464C22.3085 313.464 22.2816 313.456 22.2583 313.442H22.214C22.1909 313.431 22.1657 313.425 22.1401 313.425C22.1145 313.425 22.0893 313.431 22.0662 313.442L21.49 313.775C21.4643 313.786 21.4367 313.791 21.4087 313.791C21.3808 313.791 21.3532 313.786 21.3275 313.775L20.9877 313.575C20.9433 313.575 20.9433 313.508 20.9877 313.479L21.5269 313.168L21.6377 313.109L21.719 313.057L21.8003 313.013L22.2583 312.746C22.281 312.728 22.308 312.717 22.3365 312.713C22.3651 312.709 22.3942 312.713 22.4208 312.724Z" fill="#3A2C6D"/>
<path d="M29.8082 320.368L30.3475 320.679C30.3736 320.693 30.4028 320.701 30.4325 320.701C30.4622 320.701 30.4914 320.693 30.5174 320.679L31.0346 320.383C31.0863 320.383 31.0863 320.309 31.0346 320.287L30.4953 319.976C30.4692 319.962 30.44 319.954 30.4103 319.954C30.3806 319.954 30.3514 319.962 30.3254 319.976L29.8082 320.272C29.7713 320.302 29.7639 320.346 29.8082 320.368Z" fill="#3A2C6D"/>
<path d="M29.0473 319.932L29.5866 320.242C29.6132 320.255 29.6422 320.261 29.6716 320.261C29.701 320.261 29.73 320.255 29.7565 320.242L30.2737 319.946C30.3254 319.946 30.3254 319.872 30.2737 319.843L29.7344 319.532C29.7078 319.519 29.6788 319.513 29.6494 319.513C29.62 319.513 29.591 319.519 29.5645 319.532L29.0473 319.828C29.003 319.858 29.003 319.902 29.0473 319.932Z" fill="#3A2C6D"/>
<path d="M28.279 319.488L28.8257 319.798C28.8518 319.813 28.881 319.82 28.9107 319.82C28.9404 319.82 28.9696 319.813 28.9956 319.798L29.5127 319.502C29.5571 319.502 29.5645 319.428 29.5127 319.406L28.9735 319.095C28.9474 319.081 28.9182 319.074 28.8885 319.074C28.8588 319.074 28.8296 319.081 28.8035 319.095L28.2864 319.399C28.2421 319.421 28.2421 319.465 28.279 319.488Z" fill="#3A2C6D"/>
<path d="M21.7929 315.736L22.3322 316.047C22.3596 316.061 22.39 316.068 22.4209 316.068C22.4517 316.068 22.4821 316.061 22.5095 316.047L23.0192 315.751C23.071 315.751 23.0783 315.677 23.0192 315.654L22.48 315.336C22.4534 315.324 22.4244 315.317 22.395 315.317C22.3656 315.317 22.3366 315.324 22.31 315.336L21.7929 315.64C21.756 315.669 21.7486 315.714 21.7929 315.736Z" fill="#3A2C6D"/>
<path d="M21.032 315.299L21.5713 315.61C21.5979 315.623 21.6269 315.629 21.6562 315.629C21.6856 315.629 21.7146 315.623 21.7412 315.61L22.2583 315.307C22.31 315.307 22.3174 315.24 22.2583 315.21L21.719 314.9C21.6917 314.885 21.6612 314.878 21.6304 314.878C21.5995 314.878 21.5691 314.885 21.5417 314.9L21.032 315.196C20.9951 315.24 20.9877 315.24 21.032 315.299Z" fill="#3A2C6D"/>
<path d="M20.2711 314.855L20.8104 315.166C20.8364 315.18 20.8656 315.188 20.8953 315.188C20.925 315.188 20.9542 315.18 20.9803 315.166L21.4974 314.87C21.5491 314.87 21.5565 314.796 21.4974 314.774L20.9581 314.456C20.9303 314.443 20.9 314.436 20.8695 314.436C20.8389 314.436 20.8086 314.443 20.7808 314.456L20.2711 314.759C20.2341 314.789 20.2268 314.833 20.2711 314.855Z" fill="#3A2C6D"/>
<path d="M19.5102 314.411L20.0495 314.729C20.0761 314.742 20.1051 314.748 20.1345 314.748C20.1638 314.748 20.1928 314.742 20.2194 314.729L20.7365 314.426C20.7882 314.426 20.7882 314.352 20.7365 314.33L20.1899 314.019C20.1638 314.005 20.1346 313.997 20.1049 313.997C20.0752 313.997 20.046 314.005 20.02 314.019L19.5028 314.315C19.4733 314.345 19.4659 314.389 19.5102 314.411Z" fill="#3A2C6D"/>
<path d="M27.3335 318.94L28.0722 319.369C28.1001 319.382 28.1303 319.388 28.1609 319.388C28.1915 319.388 28.2217 319.382 28.2495 319.369L28.7593 319.073C28.811 319.073 28.8184 318.999 28.7593 318.97L28.0205 318.548C27.9945 318.534 27.9653 318.526 27.9356 318.526C27.9059 318.526 27.8767 318.534 27.8506 318.548L27.3335 318.844C27.2892 318.866 27.2818 318.94 27.3335 318.94Z" fill="#3A2C6D"/>
<path d="M22.5538 316.18L23.2925 316.602C23.3186 316.616 23.3478 316.623 23.3775 316.623C23.4072 316.623 23.4364 316.616 23.4624 316.602L23.9796 316.306C24.0313 316.306 24.0387 316.232 23.9796 316.202L23.2408 315.78C23.2142 315.768 23.1852 315.761 23.1559 315.761C23.1265 315.761 23.0975 315.768 23.0709 315.78L22.5538 316.076C22.5169 316.106 22.5095 316.15 22.5538 316.18Z" fill="#3A2C6D"/>
<path d="M23.5142 316.72L27.1044 318.799C27.131 318.812 27.16 318.818 27.1894 318.818C27.2188 318.818 27.2478 318.812 27.2744 318.799L27.7915 318.503C27.8432 318.503 27.8432 318.429 27.7915 318.4L24.2086 316.328C24.1812 316.314 24.1508 316.306 24.1199 316.306C24.0891 316.306 24.0587 316.314 24.0313 316.328L23.5215 316.624C23.4772 316.661 23.4698 316.72 23.5142 316.72Z" fill="#3A2C6D"/>
<path d="M29.9486 318.74L30.4879 319.051C30.514 319.065 30.5432 319.073 30.5729 319.073C30.6026 319.073 30.6318 319.065 30.6578 319.051L31.1749 318.755C31.2267 318.755 31.234 318.681 31.1749 318.651L30.6357 318.341C30.6078 318.328 30.5776 318.321 30.547 318.321C30.5164 318.321 30.4862 318.328 30.4584 318.341L29.9486 318.637C29.9117 318.666 29.9043 318.711 29.9486 318.74Z" fill="#3A2C6D"/>
<path d="M29.1877 318.296L29.727 318.607C29.753 318.621 29.7823 318.629 29.8119 318.629C29.8416 318.629 29.8708 318.621 29.8969 318.607L30.414 318.311C30.4657 318.311 30.4657 318.237 30.414 318.215L29.8747 317.904C29.8487 317.89 29.8195 317.882 29.7898 317.882C29.7601 317.882 29.7309 317.89 29.7048 317.904L29.1877 318.2C29.1508 318.2 29.1434 318.274 29.1877 318.296Z" fill="#3A2C6D"/>
<path d="M28.4194 317.86L28.9661 318.17C28.9927 318.183 29.0217 318.189 29.051 318.189C29.0804 318.189 29.1094 318.183 29.136 318.17L29.6531 317.874C29.6974 317.874 29.7048 317.8 29.6531 317.771L29.1138 317.46C29.0873 317.447 29.0583 317.441 29.0289 317.441C28.9995 317.441 28.9705 317.447 28.9439 317.46L28.4268 317.756C28.3825 317.786 28.3825 317.83 28.4194 317.86Z" fill="#3A2C6D"/>
<path d="M27.6585 317.416L28.1978 317.726C28.2239 317.741 28.2531 317.748 28.2828 317.748C28.3125 317.748 28.3417 317.741 28.3677 317.726L28.8848 317.43C28.9366 317.43 28.9439 317.356 28.8848 317.327L28.3456 317.016C28.319 317.003 28.29 316.997 28.2606 316.997C28.2312 316.997 28.2022 317.003 28.1756 317.016L27.6585 317.319C27.6216 317.349 27.6142 317.393 27.6585 317.416Z" fill="#3A2C6D"/>
<path d="M26.8976 316.972L27.4369 317.282C27.4629 317.297 27.4922 317.304 27.5218 317.304C27.5515 317.304 27.5807 317.297 27.6068 317.282L28.1239 316.979C28.1756 316.979 28.183 316.905 28.1239 316.883L27.5846 316.572C27.5573 316.558 27.5268 316.55 27.496 316.55C27.4651 316.55 27.4347 316.558 27.4073 316.572L26.8976 316.868C26.8607 316.905 26.8533 316.949 26.8976 316.972Z" fill="#3A2C6D"/>
<path d="M26.1367 316.535L26.676 316.846C26.7026 316.858 26.7316 316.865 26.7609 316.865C26.7903 316.865 26.8193 316.858 26.8459 316.846L27.363 316.55C27.4073 316.55 27.4147 316.476 27.363 316.446L26.8237 316.135C26.7972 316.123 26.7681 316.116 26.7388 316.116C26.7094 316.116 26.6804 316.123 26.6538 316.135L26.1367 316.431C26.0924 316.461 26.0924 316.505 26.1367 316.535Z" fill="#3A2C6D"/>
<path d="M25.3684 316.091L25.9077 316.402C25.9351 316.416 25.9655 316.424 25.9964 316.424C26.0272 316.424 26.0576 316.416 26.085 316.402L26.5947 316.106C26.6465 316.106 26.6538 316.032 26.5947 316.01L26.0555 315.691C26.0289 315.679 25.9999 315.672 25.9705 315.672C25.9411 315.672 25.9121 315.679 25.8855 315.691L25.3684 315.995C25.3315 316.024 25.3241 316.069 25.3684 316.091Z" fill="#3A2C6D"/>
<path d="M24.6075 315.647L25.1173 315.98C25.1438 315.993 25.1728 315.999 25.2022 315.999C25.2316 315.999 25.2606 315.993 25.2872 315.98L25.8043 315.677C25.856 315.677 25.8634 315.603 25.8043 315.58L25.265 315.27C25.2376 315.255 25.2072 315.248 25.1764 315.248C25.1455 315.248 25.1151 315.255 25.0877 315.27L24.578 315.566C24.5706 315.58 24.5632 315.625 24.6075 315.647Z" fill="#3A2C6D"/>
<path d="M23.8466 315.24L24.3859 315.551C24.4125 315.563 24.4415 315.57 24.4708 315.57C24.5002 315.57 24.5292 315.563 24.5558 315.551L25.0729 315.255C25.1246 315.255 25.1246 315.181 25.0729 315.151L24.5336 314.84C24.5071 314.828 24.478 314.821 24.4487 314.821C24.4193 314.821 24.3903 314.828 24.3637 314.84L23.8466 315.136C23.8023 315.136 23.8023 315.181 23.8466 315.24Z" fill="#3A2C6D"/>
<path d="M23.0783 314.766L23.6176 315.077C23.645 315.091 23.6754 315.099 23.7063 315.099C23.7371 315.099 23.7675 315.091 23.7949 315.077L24.3046 314.781C24.3564 314.781 24.3637 314.707 24.3046 314.685L23.7654 314.367C23.7388 314.354 23.7098 314.348 23.6804 314.348C23.651 314.348 23.622 314.354 23.5954 314.367L23.0783 314.67C23.0414 314.7 23.034 314.744 23.0783 314.766Z" fill="#3A2C6D"/>
<path d="M22.3174 314.322L22.8567 314.641C22.8833 314.653 22.9123 314.66 22.9416 314.66C22.971 314.66 23 314.653 23.0266 314.641L23.5437 314.337C23.5954 314.337 23.6028 314.263 23.5437 314.241L23.0044 313.93C22.9771 313.916 22.9466 313.908 22.9158 313.908C22.8849 313.908 22.8545 313.916 22.8271 313.93L22.3174 314.226C22.2805 314.256 22.2731 314.3 22.3174 314.322Z" fill="#3A2C6D"/>
<path d="M21.5565 313.886L22.0958 314.197C22.1224 314.209 22.1514 314.216 22.1807 314.216C22.2101 314.216 22.2391 314.209 22.2657 314.197L22.7828 313.901C22.8345 313.901 22.8345 313.827 22.7828 313.797L22.2435 313.486C22.217 313.474 22.1879 313.467 22.1586 313.467C22.1292 313.467 22.1002 313.474 22.0736 313.486L21.5565 313.782C21.5122 313.812 21.5122 313.856 21.5565 313.886Z" fill="#3A2C6D"/>
<path d="M30.7096 319.184L31.8324 319.828C31.859 319.841 31.888 319.847 31.9174 319.847C31.9468 319.847 31.9758 319.841 32.0024 319.828L32.5121 319.532C32.5638 319.532 32.5712 319.458 32.5121 319.428L31.3966 318.785C31.3705 318.77 31.3413 318.763 31.3116 318.763C31.2819 318.763 31.2527 318.77 31.2267 318.785L30.7096 319.081C30.6726 319.11 30.6652 319.155 30.7096 319.184Z" fill="#3A2C6D"/>
<path d="M29.5867 319.384L30.1259 319.702C30.1525 319.715 30.1815 319.721 30.2109 319.721C30.2403 319.721 30.2693 319.715 30.2959 319.702L30.813 319.399C30.8647 319.399 30.8721 319.325 30.813 319.303L30.2737 318.992C30.2476 318.978 30.2184 318.97 30.1887 318.97C30.1591 318.97 30.1298 318.978 30.1038 318.992L29.5867 319.288C29.5497 319.317 29.5497 319.362 29.5867 319.384Z" fill="#3A2C6D"/>
<path d="M28.811 318.94L29.3503 319.251C29.3768 319.263 29.4058 319.27 29.4352 319.27C29.4646 319.27 29.4936 319.263 29.5202 319.251L30.0373 318.955C30.089 318.955 30.0964 318.881 30.0373 318.851L29.4906 318.54C29.464 318.528 29.435 318.521 29.4057 318.521C29.3763 318.521 29.3473 318.528 29.3207 318.54L28.811 318.836C28.811 318.873 28.811 318.94 28.811 318.94Z" fill="#3A2C6D"/>
<path d="M28.0722 318.503L28.6115 318.814C28.6376 318.828 28.6668 318.836 28.6965 318.836C28.7262 318.836 28.7554 318.828 28.7814 318.814L29.2985 318.518C29.3429 318.518 29.3503 318.444 29.2985 318.422L28.7593 318.104C28.7327 318.091 28.7037 318.085 28.6743 318.085C28.6449 318.085 28.6159 318.091 28.5894 318.104L28.0722 318.407C28.0205 318.437 28.0205 318.481 28.0722 318.503Z" fill="#3A2C6D"/>
<path d="M27.3335 318.059L27.8728 318.378C27.9006 318.39 27.9308 318.397 27.9614 318.397C27.992 318.397 28.0222 318.39 28.0501 318.378L28.5598 318.074C28.6115 318.074 28.6189 318 28.5598 317.978L28.0205 317.667C27.9945 317.653 27.9652 317.645 27.9356 317.645C27.9059 317.645 27.8767 317.653 27.8506 317.667L27.3335 317.963C27.2596 317.993 27.2522 318.037 27.3335 318.059Z" fill="#3A2C6D"/>
<path d="M26.5356 317.623L27.0749 317.934C27.1015 317.946 27.1305 317.953 27.1598 317.953C27.1892 317.953 27.2182 317.946 27.2448 317.934L27.7619 317.638C27.8136 317.638 27.821 317.564 27.7619 317.534L27.2226 317.223C27.1948 317.211 27.1646 317.204 27.134 317.204C27.1034 317.204 27.0732 317.211 27.0453 317.223L26.5356 317.519C26.4987 317.549 26.4913 317.593 26.5356 317.623Z" fill="#3A2C6D"/>
<path d="M25.7747 317.179L26.314 317.49C26.34 317.504 26.3692 317.511 26.3989 317.511C26.4286 317.511 26.4578 317.504 26.4839 317.49L27.001 317.194C27.0527 317.194 27.0527 317.12 27.001 317.097L26.4617 316.787C26.4357 316.772 26.4065 316.765 26.3768 316.765C26.3471 316.765 26.3179 316.772 26.2918 316.787L25.7747 317.083C25.7304 317.112 25.7304 317.157 25.7747 317.179Z" fill="#3A2C6D"/>
<path d="M25.0064 316.72L25.5457 317.031C25.5736 317.044 25.6038 317.05 25.6344 317.05C25.6649 317.05 25.6952 317.044 25.723 317.031L26.2327 316.735C26.2845 316.735 26.2918 316.661 26.2327 316.631L25.6935 316.32C25.6674 316.306 25.6382 316.299 25.6085 316.299C25.5788 316.299 25.5496 316.306 25.5235 316.32L25.0064 316.616C24.9695 316.668 24.9621 316.72 25.0064 316.72Z" fill="#3A2C6D"/>
<path d="M24.2455 316.298L24.7848 316.609C24.8108 316.623 24.8401 316.631 24.8697 316.631C24.8994 316.631 24.9286 316.623 24.9547 316.609L25.4718 316.313C25.5235 316.313 25.5309 316.239 25.4718 316.209L24.9325 315.899C24.9047 315.886 24.8745 315.879 24.8439 315.879C24.8133 315.879 24.7831 315.886 24.7552 315.899L24.2455 316.202C24.2086 316.224 24.2012 316.269 24.2455 316.298Z" fill="#3A2C6D"/>
<path d="M23.4846 315.854L24.0239 316.165C24.0503 316.178 24.0794 316.185 24.1089 316.185C24.1383 316.185 24.1674 316.178 24.1938 316.165L24.711 315.862C24.7627 315.862 24.7627 315.788 24.711 315.765L24.1643 315.455C24.1382 315.44 24.109 315.433 24.0793 315.433C24.0496 315.433 24.0204 315.44 23.9944 315.455L23.4773 315.751C23.4477 315.788 23.4403 315.832 23.4846 315.854Z" fill="#3A2C6D"/>
<path d="M22.7237 315.418L23.263 315.728C23.2896 315.741 23.3186 315.747 23.348 315.747C23.3773 315.747 23.4064 315.741 23.4329 315.728L23.95 315.432C23.9944 315.432 24.0018 315.358 23.95 315.329L23.4108 315.018C23.3842 315.005 23.3552 314.999 23.3258 314.999C23.2964 314.999 23.2674 315.005 23.2409 315.018L22.7237 315.314C22.6794 315.344 22.6794 315.388 22.7237 315.418Z" fill="#3A2C6D"/>
<path d="M21.9554 314.974L22.4947 315.284C22.5221 315.299 22.5525 315.306 22.5833 315.306C22.6142 315.306 22.6446 315.299 22.672 315.284L23.1817 314.988C23.2334 314.988 23.2408 314.914 23.1817 314.892L22.6424 314.574C22.6159 314.561 22.5868 314.555 22.5575 314.555C22.5281 314.555 22.4991 314.561 22.4725 314.574L21.9554 314.877C21.9185 314.907 21.9111 314.951 21.9554 314.974Z" fill="#3A2C6D"/>
<path d="M20.2489 313.989L21.7264 314.848C21.753 314.86 21.782 314.867 21.8114 314.867C21.8407 314.867 21.8697 314.86 21.8963 314.848L22.4134 314.544C22.4651 314.544 22.4725 314.47 22.4134 314.448L20.9359 313.59C20.9086 313.576 20.8782 313.568 20.8473 313.568C20.8164 313.568 20.786 313.576 20.7587 313.59L20.2489 313.886C20.212 313.915 20.2046 313.96 20.2489 313.989Z" fill="#3A2C6D"/>
<path d="M30.3475 319.828L31.0863 320.257C31.1129 320.27 31.1419 320.276 31.1712 320.276C31.2006 320.276 31.2296 320.27 31.2562 320.257L31.7733 319.954C31.825 319.954 31.8324 319.88 31.7733 319.858L31.0346 319.428C31.008 319.416 30.979 319.409 30.9496 319.409C30.9202 319.409 30.8912 319.416 30.8647 319.428L30.3475 319.732C30.2884 319.761 30.2884 319.806 30.3475 319.828Z" fill="#3A2C6D"/>
<path d="M35.9472 318.311L23.6989 311.222V301.602L23.7949 301.38L23.8909 301.335C24.0196 301.259 24.1663 301.219 24.3157 301.219C24.4651 301.219 24.6118 301.259 24.7405 301.335L35.9472 307.81C36.0751 307.887 36.1811 307.995 36.2549 308.125C36.3286 308.255 36.3677 308.401 36.3683 308.55V317.608C36.287 318.045 36.1984 318.156 35.9472 318.311Z" fill="#E5E5E5"/>
<path d="M34.8243 308.957L23.6989 301.92V301.602L23.7949 301.38L23.8909 301.335C24.0196 301.259 24.1663 301.219 24.3157 301.219C24.4651 301.219 24.6118 301.259 24.7405 301.335L35.9472 307.81C36.0851 307.889 36.1958 308.008 36.2649 308.151L34.8243 308.957Z" fill="#E5E5E5"/>
<path d="M23.9796 301.358L35.7404 308.159C35.8022 308.195 35.8537 308.247 35.8899 308.309C35.9261 308.372 35.9458 308.442 35.9472 308.514V318.312L23.6989 311.222V301.521C23.698 301.488 23.7061 301.455 23.7223 301.426C23.7385 301.397 23.7622 301.373 23.7909 301.356C23.8197 301.339 23.8524 301.331 23.8855 301.331C23.9187 301.332 23.9512 301.341 23.9796 301.358Z" fill="#DCEEFF"/>
<path d="M23.9796 301.358L35.7404 308.159C35.8022 308.195 35.8537 308.247 35.8899 308.309C35.9261 308.372 35.9458 308.442 35.9472 308.514V318.312L23.6989 311.222V301.521C23.698 301.488 23.7061 301.455 23.7223 301.426C23.7385 301.397 23.7622 301.373 23.7909 301.356C23.8197 301.339 23.8524 301.331 23.8855 301.331C23.9187 301.332 23.9512 301.341 23.9796 301.358Z" fill="#F4F4F4"/>
<path d="M35.9472 318.311V317.956L23.6989 310.874V311.222L35.9472 318.311Z" fill="#DBDBDB"/>
<path d="M24.0165 310.711V301.868L24.1642 301.95V310.637L24.0165 310.711Z" fill="#1E3779"/>
<path d="M24.1642 301.95V310.637L35.5557 317.201V308.536L24.1642 301.95Z" fill="#3A2C6D"/>
<path d="M24.0165 310.711L35.5556 317.379V317.201L24.1642 310.637L24.0165 310.711Z" fill="#031F60"/>
<path d="M10.83 299.826C10.5345 300.566 11.2806 301.439 13.253 302.046C15.2255 302.653 15.4028 301.868 15.4028 301.868C16.7184 302.459 18.0008 303.121 19.2442 303.851C20.4262 304.68 20.9507 307.085 21.1133 311.14C21.2979 315.832 21.3127 322.788 21.1576 323.994C21.1576 323.994 18.9414 326.214 16.112 325.97C13.2826 325.726 8.50293 323.225 7.35049 321.286C7.35049 317.171 7.86022 316.498 7.19535 314.13C5.67354 308.706 4.86832 306.486 5.61444 302.875C6.22021 299.915 7.09193 299.537 8.25176 299.567C9.1151 299.608 9.97569 299.694 10.83 299.826Z" fill="#F4F4F4"/>
<path d="M25.7747 316.18C23.4477 316.772 22.901 315.299 22.5981 314.086C21.8594 311.126 21.4605 308.476 20.9064 306.804C20.2563 304.836 19.5767 304.517 18.6163 304.133C17.5008 303.681 16.5331 304.636 16.9024 307.144C17.3631 310.058 18.0775 312.925 19.0374 315.714C19.3772 316.969 20.0335 318.116 20.9434 319.044C22.1475 320.02 23.9574 319.976 26.6908 319.295C28.2939 318.748 29.8503 318.073 31.3449 317.275C31.9358 317.001 32.3939 316.816 33.5611 316.283C34.7174 315.777 35.732 314.995 36.5161 314.004C37.107 313.138 37.1883 312.731 37.0701 312.524C36.9519 312.317 36.6416 312.332 36.3314 312.694C35.8728 313.307 35.3072 313.831 34.6618 314.241C34.6618 314.241 35.4006 313.501 35.7921 312.99C36.1509 312.539 36.4466 312.041 36.6712 311.51C36.8854 311.007 36.4496 310.326 36.1171 310.682C35.7847 311.037 35.6369 311.422 35.0312 312.162C34.7148 312.547 34.3526 312.893 33.9526 313.19C34.3275 312.685 34.661 312.151 34.9499 311.592C35.2091 311.143 35.3347 310.63 35.3119 310.112C35.3119 309.853 34.9204 309.542 34.5732 310.038C34.2134 310.745 33.7667 311.403 33.2434 311.999C32.7115 312.554 32.2609 312.872 32.2461 312.739C32.2313 312.606 32.5712 312.28 32.7559 311.644C32.9405 311.007 32.7559 310.319 32.4013 310.245C32.0467 310.171 32.1131 310.186 31.8324 310.793C31.4381 311.41 31.0852 312.053 30.776 312.717C30.5938 313.336 30.2642 313.903 29.8157 314.367C29.2542 314.951 27.991 315.625 25.7747 316.18Z" fill="#FFCEA9"/>
<path d="M17.7298 303.733C19.2812 303.504 20.3819 304.207 21.0689 306.56C21.756 308.913 22.2288 310.852 22.2288 310.852C21.6156 311.742 20.6847 312.361 19.6284 312.583C17.7742 313.035 17.1019 312.147 17.1019 312.147C17.1019 312.147 16.5848 309.675 16.2671 307.995C15.9495 306.316 15.8387 304.014 17.7298 303.733Z" fill="#EDEDED"/>
<path d="M18.5277 291.664C18.5277 291.664 20.9803 287.927 15.6614 287.164C11.8273 286.617 9.35991 289.081 9.07919 291.76C8.80586 294.32 10.3794 296.977 11.5097 298.035C12.6264 298.32 13.8091 298.177 14.8266 297.635C14.89 296.937 14.9147 296.235 14.9005 295.534C14.9005 295.534 13.0315 291.597 18.5277 291.664Z" fill="#3A2C6D"/>
<path d="M29.173 338.957V327.731L20.2711 332.933L23.6989 340.03L29.173 338.957Z" fill="#C4C7D6"/>
<path d="M23.3369 328.375L26.7498 326.392L29.1655 327.79L25.627 329.803L23.3369 328.375Z" fill="#D6D8E5"/>
<path opacity="0.4" d="M164.075 277.5L122.025 253.184C118.989 251.43 119.373 248.366 122.875 246.339L150.12 230.584L203.154 261.279L175.917 277.034C172.408 279.061 167.111 279.276 164.075 277.5Z" fill="#D6D8E5"/>
<path d="M167.148 275.717L125.091 251.393C122.062 249.639 122.447 246.583 125.941 244.555L153.186 228.801L206.22 259.466L178.975 275.228C175.474 277.248 170.177 277.5 167.148 275.717Z" fill="#B1B4C4"/>
<path d="M206.22 259.466V257.86L203.775 259.274L206.22 259.466Z" fill="#B1B4C4"/>
<path d="M123.045 248.499V246.864L125.564 247.907L123.045 248.499Z" fill="#B1B4C4"/>
<path d="M167.148 274.111L125.091 249.787C122.062 248.033 122.447 244.97 125.941 242.949L153.186 227.18L206.22 257.853L178.975 273.608C175.474 275.643 170.177 275.857 167.148 274.111Z" fill="#D6D8E5"/>
<path d="M153.333 227.261L146.766 205.446L200.377 236.252L206.22 257.86L153.333 227.261Z" fill="#9EA1AF"/>
<path d="M204.669 258.756L206.22 257.86L203.893 256.04L204.669 258.756Z" fill="#9EA1AF"/>
<path d="M151.642 228.083L145.074 206.268L198.685 237.074L204.669 258.756L151.642 228.083Z" fill="#B1B4C4"/>
<path d="M287.733 295.519L80.2127 175.506C77.302 173.819 74.9454 169.305 74.9454 165.42V4.62501C74.9454 0.740006 77.302 -1.05079 80.2127 0.636406L287.733 120.62C290.643 122.3 293 126.814 293 130.706V291.56C293 295.415 290.643 297.206 287.733 295.519Z" fill="#C4C7D6"/>
<path d="M288.797 297.177L291.101 295.852L290.104 289.022L288.797 297.177Z" fill="#C4C7D6"/>
<path d="M74.5687 1.62061L76.8292 0.318207L80.0797 2.17561C80.0797 2.17561 76.615 2.70101 76.5337 2.67881C76.4525 2.65661 74.5687 1.62061 74.5687 1.62061Z" fill="#B1B4C4"/>
<path d="M285.827 296.622L78.3067 176.608C75.3961 174.921 73.0321 170.407 73.0321 166.522V5.72762C73.0321 1.83522 75.3961 0.0518193 78.3067 1.73162L285.819 121.745C288.73 123.432 291.094 127.946 291.094 131.838V292.626C291.101 296.518 288.737 298.301 285.827 296.622Z" fill="#E4E7F2"/>
<path d="M285.465 296.829L77.9447 176.816C75.0341 175.128 72.6775 170.614 72.6775 166.729V5.92002C72.6775 2.03502 75.0341 0.244219 77.9447 1.93142L285.465 121.959C288.376 123.639 290.732 128.153 290.732 132.046V292.84C290.732 296.74 288.376 298.516 285.465 296.829Z" fill="#201D38"/>
<path opacity="0.3" d="M287.881 287.053L75.3074 164.117L75.4182 6.5786C75.4182 4.9654 76.5485 4.3142 77.9447 5.0986L285.465 125.134C286.2 125.614 286.813 126.26 287.252 127.022C287.691 127.783 287.944 128.637 287.991 129.515L287.881 287.053Z" fill="url(#paint0_linear)"/>
<path d="M204.351 105.139L190.263 96.9918V91.9006L204.351 100.048V105.139Z" fill="#A298E2"/>
<path d="M236.915 123.987L206.988 106.664V101.572L236.915 118.896V123.987Z" fill="#F4CE2C"/>
<path d="M204.351 121.427L190.263 113.287V108.195L204.351 116.335V121.427Z" fill="#A298E2"/>
<path d="M216.902 128.812L206.988 122.958V117.867L216.902 123.721V128.812Z" fill="#4D3BFF"/>
<path d="M204.351 129.574L190.263 121.427V116.335L204.351 124.483V129.574Z" fill="#A298E2"/>
<path d="M223.713 140.77L206.988 131.098V126.007L223.713 135.679V140.77Z" fill="#4D3BFF"/>
<path d="M204.351 137.714L190.263 129.574V124.483L204.351 132.63V137.714Z" fill="#A298E2"/>
<path d="M251.099 164.694L206.988 139.246V134.155L251.099 159.611V164.694Z" fill="#FF8657"/>
<path d="M204.351 113.287L190.263 105.139V100.048L204.351 108.195V113.287Z" fill="#A298E2"/>
<path d="M261.936 146.624L206.988 114.811V109.72L261.936 141.532V146.624Z" fill="#A298E2"/>
<path d="M204.351 145.861L190.263 137.714V132.623L204.351 140.77V145.861Z" fill="#A298E2"/>
<path d="M254.519 175.387L206.988 147.393V142.302L254.519 170.296V175.387Z" fill="#C33AFC"/>
<path d="M204.351 162.156L190.263 154.009V148.918L204.351 157.065V162.156Z" fill="#A298E2"/>
<path d="M262.446 195.752L206.988 163.681V158.589L262.446 190.661V195.752Z" fill="#A298E2"/>
<path d="M204.351 170.296L190.263 162.156V157.065L204.351 165.205V170.296Z" fill="#A298E2"/>
<path d="M223.713 181.5L206.988 171.821V166.737L223.713 176.409V181.5Z" fill="#C33AFC"/>
<path d="M204.351 178.444L190.263 170.296V165.205L204.351 173.352V178.444Z" fill="#A298E2"/>
<path d="M241.162 199.822L206.988 179.968V174.877L241.162 194.731V199.822Z" fill="#4D3BFF"/>
<path d="M204.351 154.009L190.263 145.861V140.77L204.351 148.918V154.009Z" fill="#A298E2"/>
<path d="M213.149 159.1L206.988 155.533V150.442L213.149 154.009V159.1Z" fill="#4D3BFF"/>
<path d="M204.351 186.591L190.263 178.444V173.352L204.351 181.5V186.591Z" fill="#A298E2"/>
<path d="M229.047 200.843L206.988 188.115V183.024L229.047 195.752V200.843Z" fill="#C33AFC"/>
<path d="M204.351 202.878L190.263 194.731V189.64L204.351 197.787V202.878Z" fill="#A298E2"/>
<path d="M239.175 222.784L206.988 204.403V199.312L239.175 217.693V222.784Z" fill="#FF8657"/>
<path d="M204.351 211.026L190.263 202.878V197.787L204.351 205.935V211.026Z" fill="#A298E2"/>
<path d="M211.007 215.096L206.988 212.55V207.459L211.007 210.005V215.096Z" fill="#A298E2"/>
<path d="M204.351 219.166L190.263 211.026V205.935L204.351 214.075V219.166Z" fill="#A298E2"/>
<path d="M225.449 231.346L206.988 220.698V215.606L225.449 226.255V231.346Z" fill="#F4CE2C"/>
<path d="M204.351 194.731L190.263 186.591V181.492L204.351 189.64V194.731Z" fill="#A298E2"/>
<path d="M232.674 211.026L206.988 196.255V191.172L232.674 205.935V211.026Z" fill="#4D3BFF"/>
<path d="M113.234 54.2346L99.1466 46.0872V40.996L113.234 49.1434V54.2346Z" fill="#A298E2"/>
<path d="M175.732 90.3762L115.872 55.759V50.6678L175.732 85.285V90.3762Z" fill="#C33AFC"/>
<path d="M113.234 70.522L99.1466 62.3746V57.2834L113.234 65.4308V70.522Z" fill="#A298E2"/>
<path d="M155.483 94.9568L115.872 72.0464V66.9552L155.483 89.8656V94.9568Z" fill="#F4CE2C"/>
<path d="M113.234 78.6694L99.1466 70.522V65.4308L113.234 73.5782V78.6694Z" fill="#A298E2"/>
<path d="M165.168 108.699L115.872 80.1938V75.1026L165.168 103.607V108.699Z" fill="#FF8657"/>
<path d="M113.234 86.8094L99.1466 78.6694V73.5782L113.234 81.7182V86.8094Z" fill="#A298E2"/>
<path d="M150.201 108.195L115.872 88.3412V83.25L150.201 103.104V108.195Z" fill="#A298E2"/>
<path d="M113.234 62.3746L99.1466 54.2272V49.1434L113.234 57.2834V62.3746Z" fill="#A298E2"/>
<path d="M145.798 81.215L115.872 63.9064V58.8152L145.798 76.1238V81.215Z" fill="#4D3BFF"/>
<path d="M113.234 94.9568L99.1466 86.8094V81.7182L113.234 89.8656V94.9568Z" fill="#A298E2"/>
<path d="M133.476 106.664L115.872 96.4812V91.39L133.476 101.572V106.664Z" fill="#C33AFC"/>
<path d="M113.234 111.244L99.1466 103.097V98.013L113.234 106.153V111.244Z" fill="#A298E2"/>
<path d="M171.329 144.848L115.872 112.776V107.685L171.329 139.756V144.848Z" fill="#F4CE2C"/>
<path d="M113.234 119.392L99.1466 111.244V106.153L113.234 114.3V119.392Z" fill="#A298E2"/>
<path d="M132.597 130.588L115.872 120.916V115.825L132.597 125.497V130.588Z" fill="#FF8657"/>
<path d="M113.234 127.539L99.1466 119.392V114.3L113.234 122.448V127.539Z" fill="#A298E2"/>
<path d="M165.168 157.568L115.872 129.063V123.972L165.168 152.484V157.568Z" fill="#A298E2"/>
<path d="M113.234 103.104L99.1466 94.9568V89.8656L113.234 98.013V103.104Z" fill="#A298E2"/>
<path d="M162.523 131.609L115.872 104.629V99.5374L162.523 126.518V131.609Z" fill="#4D3BFF"/>
<path d="M113.234 135.679L99.1466 127.532V122.448L113.234 130.588V135.679Z" fill="#A298E2"/>
<path d="M122.033 140.77L115.872 137.211V132.12L122.033 135.679V140.77Z" fill="#C33AFC"/>
<path d="M113.234 151.974L99.1466 143.826V138.735L113.234 146.883V151.974Z" fill="#A298E2"/>
<path d="M127.315 160.114L115.872 153.498V148.407L127.315 155.023V160.114Z" fill="#F4CE2C"/>
<path d="M113.234 160.114L99.1466 151.974V146.883L113.234 155.023V160.114Z" fill="#A298E2"/>
<path d="M145.798 178.954L115.872 161.646V156.554L145.798 173.863V178.954Z" fill="#FF8657"/>
<path d="M113.234 168.261L99.1466 160.114V155.023L113.234 163.17V168.261Z" fill="#A298E2"/>
<path d="M163.402 197.277L115.872 169.786V164.694L163.402 192.185V197.277Z" fill="#A298E2"/>
<path d="M113.234 143.826L99.1466 135.679V130.588L113.234 138.735V143.826Z" fill="#A298E2"/>
<path d="M175.732 179.968L115.872 145.351V140.26L175.732 174.877V179.968Z" fill="#4D3BFF"/>
<path opacity="0.4" d="M221.438 370C238.509 370 252.347 361.996 252.347 352.122C252.347 342.248 238.509 334.243 221.438 334.243C204.367 334.243 190.529 342.248 190.529 352.122C190.529 361.996 204.367 370 221.438 370Z" fill="#D6D8E5"/>
<path d="M255.383 349.583V301.92L193.691 303.474L193.824 347.43C192.671 352.721 195.597 358.249 202.622 362.311C214.693 369.29 234.263 369.297 246.334 362.311C252.399 358.782 255.413 354.179 255.383 349.583Z" fill="#A6CE28"/>
<path d="M224.474 319.776C241.545 319.776 255.383 311.772 255.383 301.898C255.383 292.024 241.545 284.019 224.474 284.019C207.404 284.019 193.565 292.024 193.565 301.898C193.565 311.772 207.404 319.776 224.474 319.776Z" fill="#BCD64D"/>
<path d="M250.5 301.92C250.5 304.828 248.084 307.884 243.888 310.319C239.308 312.953 233.051 314.581 226.461 314.848C225.804 314.848 225.146 314.892 224.482 314.892C217.168 314.892 210.098 313.22 205.067 310.319C200.871 307.884 198.456 304.828 198.456 301.92C198.456 299.012 200.871 295.956 205.067 293.521C210.098 290.613 217.168 288.94 224.474 288.94C225.139 288.94 225.804 288.94 226.461 288.985C233.051 289.251 239.308 290.879 243.888 293.521C248.084 295.933 250.5 298.96 250.5 301.92Z" fill="#28221C"/>
<path opacity="0.07" d="M250.5 301.92C250.5 304.828 248.084 307.884 243.888 310.319C239.308 312.953 233.051 314.581 226.461 314.848C219.872 314.581 213.607 312.953 209.035 310.319C204.831 307.84 202.415 304.806 202.415 301.92C202.415 299.034 204.824 295.956 209.02 293.521C213.6 290.879 219.865 289.251 226.454 288.985C233.044 289.251 239.301 290.879 243.881 293.521C248.084 295.933 250.5 298.96 250.5 301.92Z" fill="white"/>
<path d="M250.862 323.979L244.302 320.176L241.111 322.026L244.302 323.876V325.089L250.456 328.641L250.271 329.781C251.165 330.521 254.349 336.441 254.349 336.441L254.571 336.234V351.574C254.571 355.6 252.214 354.238 251.209 353.653L244.302 349.657L241.111 351.5L244.302 353.343V354.556L251.209 358.552C251.907 358.971 252.651 359.309 253.426 359.559L253.012 361.483L256.587 359.462H256.639H256.691C258.168 358.589 258.796 356.465 258.796 354.083V337.988C258.826 331.187 253.618 325.852 250.862 323.979Z" fill="#8DA01F"/>
<path d="M248.018 360.424L241.111 356.428V351.5L248.018 355.496C249.023 356.073 251.379 357.442 251.379 353.409V337.388C251.379 333.599 247.959 330.98 247.375 330.565L241.111 326.939V322.026L247.671 325.829C250.434 327.702 255.605 333.044 255.605 339.845V355.881C255.605 360.21 253.632 363.666 248.018 360.424Z" fill="#99B524"/>
<path opacity="0.4" d="M30.5618 275.287C42.3162 275.287 51.845 269.774 51.845 262.974C51.845 256.173 42.3162 250.66 30.5618 250.66C18.8074 250.66 9.27863 256.173 9.27863 262.974C9.27863 269.774 18.8074 275.287 30.5618 275.287Z" fill="#D6D8E5"/>
<path d="M33.598 273.008C45.3524 273.008 54.8812 267.495 54.8812 260.695C54.8812 253.894 45.3524 248.381 33.598 248.381C21.8436 248.381 12.3148 253.894 12.3148 260.695C12.3148 267.495 21.8436 273.008 33.598 273.008Z" fill="#D6D8E5"/>
<path d="M5.10474 218.603L12.5513 261.546H54.8295L62.0913 218.914L5.10474 218.603Z" fill="#D6D8E5"/>
<path d="M33.598 234.565C49.3507 234.565 62.1208 227.18 62.1208 218.071C62.1208 208.961 49.3507 201.576 33.598 201.576C17.8452 201.576 5.07513 208.961 5.07513 218.071C5.07513 227.18 17.8452 234.565 33.598 234.565Z" fill="#E4E6EF"/>
<path d="M33.598 230.924C26.6095 230.924 20.0938 229.385 15.2476 226.581C11.0885 224.183 8.70978 221.075 8.70978 218.071C8.70978 215.066 11.0885 211.958 15.2476 209.561C20.0864 206.756 26.6095 205.217 33.598 205.217C40.5865 205.217 47.1096 206.756 51.9484 209.561C56.1075 211.958 58.4862 215.066 58.4862 218.071C58.4862 221.075 56.1444 224.22 51.9484 226.581C47.1096 229.4 40.6308 230.924 33.598 230.924Z" fill="#28221C"/>
<path d="M45.8685 205.076C46.2722 199.527 45.39 193.959 43.291 188.808C41.1919 183.657 37.9328 179.061 33.7679 175.38L33.6866 175.299V175.454C29.5179 179.136 26.2558 183.733 24.1553 188.888C22.0549 194.042 21.173 199.613 21.5786 205.165L5.25983 203.589C12.1449 229.57 33.7679 227.335 33.7679 227.335V227.284C35.4005 227.409 55.5682 228.453 62.1651 203.53L45.8685 205.076Z" fill="#99B524"/>
<path d="M33.7679 227.335C33.7679 227.335 32.2905 207.104 5.19339 193.48C5.17123 193.48 -1.22628 227.091 33.7679 227.335Z" fill="#A6CE28"/>
<path d="M33.598 227.335C33.598 227.335 35.0755 207.104 62.1726 193.48C62.1726 193.48 68.5923 227.091 33.598 227.335Z" fill="#A6CE28"/>
</g>
<defs>
<linearGradient id="paint0_linear" x1="75.3074" y1="145.913" x2="287.991" y2="145.913" gradientUnits="userSpaceOnUse">
<stop offset="0.21" stop-color="white" stop-opacity="0"/>
<stop offset="1" stop-color="white" stop-opacity="0.2"/>
</linearGradient>
<clipPath id="clip0">
<rect width="293" height="370" fill="white"/>
</clipPath>
</defs>
</svg>
