<svg width="98" height="96" viewBox="0 0 98 96" fill="none" xmlns="http://www.w3.org/2000/svg">
<g filter="url(#filter0_d)">
<path d="M87.1635 29.0398L65.6884 25.5788L56.3249 6.73814L56.1836 6.49083C54.338 3.66479 51.6288 2.04437 48.7494 2.04437C45.9828 2.04437 43.4064 3.48848 41.4946 6.11274L30.4166 25.574L11.0233 28.8305L10.7569 28.891C7.59084 29.7959 5.26994 31.8342 4.3884 34.4853C3.50685 37.1347 4.14279 40.1581 6.13417 42.778L20.6286 57.6936L18.1205 78.9387L18.1045 79.1354C18.0029 81.8938 18.772 84.2056 20.3306 85.8229C22.5503 88.1248 26.1747 88.5909 29.7654 86.9708L49.0035 76.4972L68.0796 86.8903L68.2426 86.9708C69.6901 87.6241 71.1156 87.9553 72.4819 87.9553C74.5065 87.9553 76.3505 87.1977 77.676 85.8229C79.2343 84.2056 80.0034 81.8942 79.9018 79.1354L77.3795 57.697L91.6772 43.0052L91.8718 42.7793C93.868 40.1506 94.4991 37.1374 93.5986 34.5111C92.698 31.8858 90.3513 29.8921 87.1635 29.0398ZM88.0763 39.7212L72.2696 55.9611L75.0361 79.4051C75.0698 80.7463 74.7634 81.8232 74.1658 82.4428C73.3889 83.2517 71.954 83.2832 70.321 82.5648L49.0015 70.9511L27.6816 82.5665C26.0503 83.2829 24.6171 83.2517 23.8385 82.4462C23.2409 81.8245 22.9349 80.7497 22.9681 79.4085L25.7347 55.9628L9.92804 39.7226C8.97346 38.4171 8.647 37.1082 9.00845 36.0238C9.3699 34.9347 10.421 34.0824 11.9734 33.6116L33.507 29.9926L45.5055 8.87764C47.4636 6.28293 50.2081 6.35121 52.033 9.04341L62.4414 29.9879L86.0186 33.7753C87.5755 34.2152 88.63 35.035 88.9914 36.0901C89.3512 37.1415 89.0261 38.4273 88.0763 39.7212Z" fill="white"/>
<path d="M50.1032 41.286C48.8809 41.286 47.8455 41.4436 46.9924 41.7599C46.4849 41.9535 45.7763 42.3442 44.8693 42.9356L45.941 36.3962H58.1567V31.4038H41.6998L39.6007 47.929L44.8706 48.1777C45.3381 47.2836 46.0314 46.6714 46.9507 46.3419C47.4708 46.1628 48.089 46.0742 48.8024 46.0742C50.3117 46.0742 51.4229 46.5987 52.1367 47.6518C52.8487 48.7046 53.2067 49.9934 53.2067 51.5204C53.2067 53.0739 52.8263 54.3645 52.0653 55.389C51.3044 56.4133 50.1962 56.9269 48.7406 56.9269C47.4803 56.9269 46.5179 56.5797 45.8599 55.8853C45.2005 55.1893 44.7548 54.2031 44.5217 52.9234H38.6617C38.8679 55.7281 39.884 57.8941 41.712 59.4224C43.54 60.9508 45.8768 61.7134 48.7195 61.7134C52.2505 61.7134 54.9012 60.6274 56.6769 58.4536C58.4481 56.2801 59.3341 53.8111 59.3341 51.0479C59.3341 47.8702 58.4128 45.4481 56.5723 43.7849C54.7327 42.1206 52.5766 41.286 50.1032 41.286Z" fill="white"/>
</g>
<defs>
<filter id="filter0_d" x="0" y="0" width="98" height="98" filterUnits="userSpaceOnUse" color-interpolation-filters="sRGB">
<feFlood flood-opacity="0" result="BackgroundImageFix"/>
<feColorMatrix in="SourceAlpha" type="matrix" values="0 0 0 0 0 0 0 0 0 0 0 0 0 0 0 0 0 0 127 0"/>
<feOffset dy="4"/>
<feGaussianBlur stdDeviation="2"/>
<feColorMatrix type="matrix" values="0 0 0 0 0 0 0 0 0 0 0 0 0 0 0 0 0 0 0.25 0"/>
<feBlend mode="normal" in2="BackgroundImageFix" result="effect1_dropShadow"/>
<feBlend mode="normal" in="SourceGraphic" in2="effect1_dropShadow" result="shape"/>
</filter>
</defs>
</svg>
